<svg xmlns="http://www.w3.org/2000/svg" xmlns:xlink="http://www.w3.org/1999/xlink" viewBox="0 0 479.93 284.9"><defs><style>.cls-1,.cls-5{fill:#fff;}.cls-1,.cls-3{stroke:#166980;}.cls-1,.cls-13,.cls-14,.cls-3,.cls-7{stroke-miterlimit:10;}.cls-2{fill:url(#New_Gradient_Swatch);}.cls-3,.cls-7{fill:none;}.cls-3{stroke-width:0.6px;}.cls-4{fill:url(#New_Gradient_Swatch-2);}.cls-6{fill:#099896;}.cls-13,.cls-7{stroke:#fff;}.cls-8{fill:#078b8c;}.cls-9{fill:#9cc19c;}.cls-10{fill:#f5e453;}.cls-11{fill:#f7ce40;}.cls-12{fill:#f5ed62;}.cls-13{fill:url(#New_Gradient_Swatch-3);}.cls-14{fill:#d1e6b5;stroke:#83918b;stroke-width:0.5px;}.cls-15{fill:#f2f6db;}</style><linearGradient id="New_Gradient_Swatch" x1="219.36" y1="219.18" x2="219.36" y2="67.73" gradientUnits="userSpaceOnUse"><stop offset="0" stop-color="#166980"/><stop offset="1" stop-color="#099896"/></linearGradient><linearGradient id="New_Gradient_Swatch-2" x1="251.42" y1="100.37" x2="251.42" y2="54.97" xlink:href="#New_Gradient_Swatch"/><linearGradient id="New_Gradient_Swatch-3" x1="558.18" y1="327.91" x2="558.18" y2="292.66" gradientTransform="translate(23.96 -270.02) rotate(22.17)" xlink:href="#New_Gradient_Swatch"/></defs><title>icon</title><g id="Layer_2" data-name="Layer 2"><g id="Layer_1-2" data-name="Layer 1"><path class="cls-1" d="M354.7,199.59a3.3,3.3,0,0,1-1.89-6c.64-.45,1.31-1.48,1.31-5.67v-62c0-5.19-.93-6.4-1.33-6.68a3.31,3.31,0,0,1,1.92-6,2.7,2.7,0,0,1,.49,0l1.84.33a38.88,38.88,0,0,0,14,0l1.74-.32a3,3,0,0,1,.59,0,3.31,3.31,0,0,1,1.94,6c-.17.12-1.35,1.11-1.35,6.7v62.05c0,4.39.65,5.21,1.32,5.68a3.31,3.31,0,0,1-1.9,6,3,3,0,0,1-.65-.06l-1.7-.31a39.48,39.48,0,0,0-14.05,0l-1.73.31A3.05,3.05,0,0,1,354.7,199.59Z"/><path class="cls-1" d="M11.62,199.59a3.3,3.3,0,0,1-1.88-6c.2-.15.48-.32.79-.52,2.12-1.35,4-2.76,4-5.15V85.34a5.69,5.69,0,0,0-1-.09A7.42,7.42,0,0,0,9,87.09a5.4,5.4,0,0,1-3.35,1.29c-3,0-5.11-2.92-5.11-7.11,0-5.38,4.23-15.54,20.23-15.54,11.7,0,21.78,9.11,29.15,26.36A120.46,120.46,0,0,1,56,110.55C59.5,100.81,66.78,82.87,76,71a3.7,3.7,0,0,1,2.93-1.42h21.34a6.59,6.59,0,0,1,3.76,1,3.78,3.78,0,0,1,1.73,3.09c0,1.86-1.58,3.75-4.59,3.75-1.16,0-3.07,2.48-3.07,5.12v78.69l0,2V185.9c0,4.47.23,5.93.43,6.34l.26.14a8.44,8.44,0,0,1,1.07.62,3.56,3.56,0,0,1-2,6.47,3.94,3.94,0,0,1-.69-.07l-2-.37a52.69,52.69,0,0,0-18,0l-2.07.38a4.62,4.62,0,0,1-.65.06,3.56,3.56,0,0,1-2-6.46l.13-.09c1.49-1,2.68-1.87,2.68-7V101.41c-5.64,10-15.9,31.46-16.54,55.57a4.52,4.52,0,0,1-4.5,4.37H50.6a4.53,4.53,0,0,1-4.41-3.57c-1.48-6.93-8.73-39.3-18.79-58.51v88.64c0,2.52,1.74,3.78,3.86,5.06.38.23.71.44,1,.62a3.3,3.3,0,0,1-1.9,6,3,3,0,0,1-.65-.06L28,199.22a39.54,39.54,0,0,0-14.06,0l-1.72.31A3.05,3.05,0,0,1,11.62,199.59Z"/><path class="cls-1" d="M221.65,221.18c-13.63,0-22.29-11.83-43.3-51.83V185.9c0,5.7.77,6,1.67,6.32a7.81,7.81,0,0,1,1.56.73,3.51,3.51,0,0,1,1.64,3,3.64,3.64,0,0,1-3.69,3.56,3.23,3.23,0,0,1-.69-.07l-2.23-.37a44.26,44.26,0,0,0-16.44,0l-2.25.38a3.68,3.68,0,0,1-4.34-3.5,3.48,3.48,0,0,1,1.65-3l.23-.15c1.68-1.07,3-1.92,3-6.9V145.07l0-2V125.86c0-4.39-.62-5.19-1.31-5.68a3.3,3.3,0,0,1,1.91-6,2.52,2.52,0,0,1,.48,0l1.84.33a39.78,39.78,0,0,0,7.06.64c.83,0,1.67,0,2.5-.08,4.06-1.3,9.43-1.93,16.42-1.93,21.15,0,22.88,12.08,22.88,26.67,0,12.11-4.71,20.45-13.34,23.76a253.43,253.43,0,0,0,17.9,31.54,2.7,2.7,0,0,1,.86-.82l.6-.36c1.39-.79,2.64-1.61,2.64-2.79V124h-.2a5.37,5.37,0,0,0-3.13,1.13,4.67,4.67,0,0,1-2.72.94c-2.48,0-4.28-2.26-4.28-5.38a9.8,9.8,0,0,1,3.63-7.37c2.76-2.35,6.82-3.59,11.76-3.59,15.56,0,23.06,18.57,26,28.64,2.79-6.7,7.91-17.59,14.26-25a3.27,3.27,0,0,1,2.51-1.12h15.67a5.53,5.53,0,0,1,3,.75,3.13,3.13,0,0,1,1.58,2.65c0,1.57-1.34,3.15-3.91,3.15-.55,0-1.72,1.29-1.72,2.72v51.37l0,2v15a20.77,20.77,0,0,0,.19,3.66,7,7,0,0,1,.8.42,3,3,0,0,1,1.41,2.54,3.08,3.08,0,0,1-3.13,3,3.79,3.79,0,0,1-.58,0l-1.49-.25a41.22,41.22,0,0,0-6.48-.49c-.67,0-1.34,0-2,0l-.69.67c-4.75,4.6-11.9,11.53-28.24,11.67-.26.25-.67.71-1,1.1C237.54,215.11,232.19,221.18,221.65,221.18ZM218,199.51c3.59,4.6,6.77,7.52,9,7.52h.17c4.36-.42,5.5-.53,5.92-8.21a3,3,0,0,1-2,.78,2.56,2.56,0,0,1-.54-.05l-1.24-.2a32.09,32.09,0,0,0-5.1-.41,32.5,32.5,0,0,0-5.11.41Zm11.4-8.33c0,1.27,1.09,2,2.5,2.73.29.16.55.3.75.43a2.66,2.66,0,0,1,.55.44c0-.62,0-1.28,0-2,.13-7,6.1-12.23,11.36-16.81l1.95-1.71h-.64a3.79,3.79,0,0,1-3.75-2.85c-1-4.36-5.93-24.06-12.77-36.79Zm25.51-24.08c2.88,2.88,6.8,9.05,3.18,19.5a41.88,41.88,0,0,1,4.9-.3h.48V135.92c-3.65,6.14-9,16.84-10.62,29.12Zm-70.73-44.56a15.89,15.89,0,0,0-5.36.8.55.55,0,0,0-.39.47c0,.6-.06,1.29-.06,2v28.26a10.49,10.49,0,0,0,5.81,1.75c6.85,0,8-3.84,8-16.16S189.8,122.54,184.16,122.54Z"/><path class="cls-1" d="M327.56,199.91a3.34,3.34,0,0,1-3.41-3.25,3.19,3.19,0,0,1,1.53-2.71,3.46,3.46,0,0,0,1.88-4.11c-1.12-6.13-3-17.48-3.66-21.75H307.65c-1.18,3.93-4.44,14.89-5.57,19-.94,3.38.34,6.5.85,7a2.79,2.79,0,0,1,1.3,2.38,3,3,0,0,1-3,2.9,2.82,2.82,0,0,1-.52,0l-1.37-.22a44.66,44.66,0,0,0-6.06-.3c-3.1,0-6.11.14-6.67.16a5.12,5.12,0,0,1-.64.05,2.51,2.51,0,0,1-2.63-2.55,2.85,2.85,0,0,1,1.4-2.45c.13-.09.31-.19.49-.29a3.08,3.08,0,0,0,1.42-1.23l5.1-14.47,15.77-53.83a5,5,0,0,0-1.26-3.55l-.4-.39c-1.45-1.44-3.11-3.07-2.31-5s3.52-2.18,6-2.18c2.3,0,4.05.09,5.59.17,1.18.06,2.2.12,3.24.12a27.43,27.43,0,0,0,4.81-.43,32,32,0,0,1,5.05-.49c1.07,0,3.92,0,4.64,2.1.44,1.28-.14,2.55-1.71,3.77-.73.58-.74,1.07-.39,2.61.08.36.16.7.2,1,1.91,13.93,11.33,49.36,11.43,49.71l6.19,20.81a5.57,5.57,0,0,0,1.3,1.48,3.17,3.17,0,0,1,1.55,2.71,3.35,3.35,0,0,1-3.42,3.25,3.29,3.29,0,0,1-.45,0l-.13,0-1.89-.3a49.41,49.41,0,0,0-15.48,0l-1.9.3A3.66,3.66,0,0,1,327.56,199.91Zm-5.81-41.73-5.31-23.09-6.76,23.09Z"/><path class="cls-1" d="M138.07,199.65a47.26,47.26,0,0,1-12.89-1.8c-11.21-3.2-24.3-16-24.3-41.64,0-21.14,12.49-43.78,31.1-43.78,3,0,13.41.61,19.35,8.38,4.08,5.35,4.92,12.58,2.49,21.48-1.13,4.16-9.39,6.41-12.52,6.41a3.4,3.4,0,0,1-3-1.3,2.44,2.44,0,0,1-.1-2.39c2-4.09,2.53-14-.74-19.25a6.08,6.08,0,0,0-5.34-3.23h0c-2.89,0-12.08,2.43-12.08,33.68,0,1.06,0,2.11.06,3.14h15.13c.51,0,1.61-1.41,2.15-2.09,1-1.33,2-2.58,3.6-2.58,2.7,0,3,3.27,3.16,4.35.17,1.67.17,3.87.17,6.21V166a15.21,15.21,0,0,0,.52,3.52c.33,1.42.61,2.64-.22,3.7a2.45,2.45,0,0,1-2,.91c-.92,0-2-.42-4.27-1.61-3.87-2.06-7.94-2.49-12.85-2.49l-2.81,0h-.42c1.44,5.47,6.23,18.81,18.63,18.81,6.4,0,9.06-6.54,9.06-10a2.72,2.72,0,0,1,2.78-2.72,2.79,2.79,0,0,1,2.88,2.61c.07,1.2.28,2.89.5,4.67.6,4.87.83,7.32.35,8.71-1.57,4.57-8.8,7.53-18.42,7.53Z"/><path class="cls-1" d="M386.75,199.59l-.1-77.51c-5.79-2.79-8.25-7-7.67-10a3.24,3.24,0,0,1,3.25-2.72,6,6,0,0,1,2.46.62c1.71.72,5.28,2.21,18.52,2.21h1.19c23.39,0,33.83,13.56,33.83,43.95,0,28.83-16.65,43.45-49.49,43.45ZM406.1,185.5c4.76-2.4,14.63-9.88,14.63-30.59,0-11.62-2.53-20.59-7.32-25.93a15.26,15.26,0,0,0-7.31-4.72Z"/><path class="cls-2" d="M372,125.86v62.05c0,4.56.65,6.25,2.17,7.32a1.3,1.3,0,0,1-.75,2.36,1,1,0,0,1-.24,0l-1.74-.32a41.65,41.65,0,0,0-14.77,0l-1.74.32a1.3,1.3,0,0,1-1.54-1.28,1.28,1.28,0,0,1,.55-1.06c1.52-1.07,2.17-3.07,2.17-7.32v-62c0-4.56-.65-7.24-2.17-8.31a1.31,1.31,0,0,1,.76-2.37l.23,0,1.74.32a41.19,41.19,0,0,0,14.77,0l1.74-.32a1.31,1.31,0,0,1,1,2.35C372.66,118.62,372,121.61,372,125.86ZM101.15,75.43c3.66,0,3.51-3.87-.9-3.87H78.91a1.68,1.68,0,0,0-1.34.65C64.74,88.78,55.49,118,55.49,118S47.23,67.73,20.73,67.73C-2.6,67.73.61,91.1,7.73,85.52c3-2.38,6-2.78,8.83-1.69V187.91c0,4.25-4.17,6.25-5.69,7.32a1.28,1.28,0,0,0-.55,1.06,1.3,1.3,0,0,0,1.54,1.28l1.73-.32a41.7,41.7,0,0,1,14.78,0l1.73.32a1,1,0,0,0,.24,0,1.3,1.3,0,0,0,1.3-1.3,1.28,1.28,0,0,0-.55-1.06c-1.52-1.07-5.69-2.76-5.69-7.32V92c12,17.56,20.79,56.19,22.74,65.37a2.52,2.52,0,0,0,2.46,2h3.57a2.51,2.51,0,0,0,2.51-2.42c.9-34.22,20.53-62.67,20.53-62.67V185.9c0,6.33-1.83,7.47-3.65,8.74a1.56,1.56,0,0,0,1.18,2.8l2.08-.38a55.15,55.15,0,0,1,18.66,0l2.08.38a1.43,1.43,0,0,0,.29,0,1.56,1.56,0,0,0,.89-2.83c-1.82-1.27-2.62.09-2.62-8.74V163.24h0V82.55C96.08,79,98.64,75.43,101.15,75.43ZM283,116.77c-1.84,0-3.72,2.35-3.72,4.72v53.37h0v15c0,5.84.59,4.94,1.92,5.78a1,1,0,0,1,.48.84,1.09,1.09,0,0,1-1.13,1l-.21,0-1.53-.25a45.25,45.25,0,0,0-9.66-.44c-4.94,4.66-11.29,12.3-28.56,12.3-1.75,0-5.84,10.08-19,10.08-12.94,0-21.7-12.68-44.1-55.66a.64.64,0,0,0-1.2.29V185.9c0,8.83,2.17,7.47,4.15,8.74a1.49,1.49,0,0,1,.72,1.27,1.63,1.63,0,0,1-1.69,1.56,1.73,1.73,0,0,1-.32,0l-2.26-.38a46.37,46.37,0,0,0-17.1,0l-2.26.38a1.66,1.66,0,0,1-2-1.53,1.49,1.49,0,0,1,.72-1.27c2-1.27,4.18-2.41,4.18-8.74V143.07h0V125.86c0-4.56-.64-6.24-2.16-7.31a1.31,1.31,0,0,1,.76-2.37l.23,0,1.73.32a41.47,41.47,0,0,0,10.31.57c3.74-1.24,8.91-1.91,16-1.91,19.5,0,20.88,10.45,20.88,24.67,0,11.74-4.53,20-14.12,22.56,0,0,22.36,46.46,33.2,46.6,6.14.08,7.65-2.24,7.92-16.16.2-10.67,16.87-17.46,18.25-24.33,2.18,2.18,7.12,8.37,1.37,20.68a35.9,35.9,0,0,1,10.6-.81V129.23S251,148.05,250.36,170.69a1.76,1.76,0,0,1-1.84,1.6H245.9a1.82,1.82,0,0,1-1.81-1.31c-1.43-6.07-7.87-31.63-16.71-43.24v63.44c0,3,3.07,4.14,4.18,4.85a.82.82,0,0,1,.41.7.92.92,0,0,1-1,.86h-.17l-1.28-.22a34,34,0,0,0-10.85,0l-1.28.22a1,1,0,0,1-1.13-.85.82.82,0,0,1,.41-.7c1.11-.71,4.18-2,4.18-4.85V122.33a6.87,6.87,0,0,0-6.49,1.12c-5.23,3.69-7.59-11.77,9.55-11.77,19.47,0,25.54,33.27,25.54,33.27s6.79-19.34,16.22-30.31a1.32,1.32,0,0,1,1-.43h15.67C285.61,114.21,285.72,116.77,283,116.77Zm-88.92,22.94c0-11.06-1.88-19.17-10-19.17a18,18,0,0,0-6,.91,2.55,2.55,0,0,0-1.7,2.22c0,.65-.07,1.38-.07,2.19v28.26a2,2,0,0,0,.87,1.61,12.24,12.24,0,0,0,6.94,2.14C193.61,157.87,194.11,150.76,194.11,139.71ZM349.4,196.66a1.35,1.35,0,0,1-1.42,1.25l-.26,0-1.89-.3a51.21,51.21,0,0,0-16.11,0l-1.9.3a1.37,1.37,0,0,1-1.67-1.23,1.2,1.2,0,0,1,.59-1,5.43,5.43,0,0,0,2.79-6.17c-1.4-7.68-3.92-23.39-3.92-23.39H306.16s-4.6,15.36-6,20.51c-1.17,4.25.44,8.41,1.65,9.16a.87.87,0,0,1,.43.74,1,1,0,0,1-1,.9H301l-1.38-.22c-3.87-.62-13.25-.16-13.25-.16-.63.1-1.07.05-1.07-.51a.86.86,0,0,1,.44-.74,5.64,5.64,0,0,0,2.72-2.47l.3-.85,4.86-13.76,15.85-54.1a7.13,7.13,0,0,0-1.83-5.31c-2.17-2.17-4.63-4.17,1.85-4.17s8.56.75,14-.17,9.52-.58,6.41,1.83c-2.25,1.75-1.13,4.09-.94,5.46,1.94,14.21,11.48,50,11.48,50l4.9,16.47,1.38,4.64a8,8,0,0,0,2.09,2.36A1.19,1.19,0,0,1,349.4,196.66Zm-25.14-36.48-7.58-33-9.67,33ZM152,178.85c0,4.5-3.44,12-11.06,12-17.44,0-21.13-22.79-21.13-22.79,6.75,0,13.27-.67,19.52,2.66s3,.17,3-4.75.08-9.33-1.33-9.33-3.17,4.67-5.75,4.67h-17c-.1-1.66-.15-3.37-.15-5.14,0-27.53,7.27-35.75,14.1-35.68,10.75.12,11.15,18.52,7.87,25.35-1.08,2.25,10.88-.45,11.88-4.12,5.81-21.28-9.5-27.33-19.91-27.33-17.34,0-29.1,21.81-29.1,41.78,0,22.37,10.8,36.28,22.85,39.72,12.75,3.64,26.93,1.17,28.87-4.46.59-1.71-.75-9-1-12.62C153.59,177.93,152,177.85,152,178.85Zm284.25-22.71c0,30.31-18.49,41.45-47.49,41.45l-.1-76.8c-8.25-3.42-9-9.42-6.41-9.42,2.25,0,2.62,2.92,21.87,2.82S436.23,122.79,436.23,156.14Zm-13.5-1.23c0-28.76-14.67-33-18.63-33v66.5S422.73,183.67,422.73,154.91Z"/><path class="cls-3" d="M375.79,101.12c-1.75,0-17.16-.59-17.16-21.09S369,54.22,374.52,54.22c7.54,0,11.69,3.44,11.69,9.69,0,5.72-3.6,7.72-5.15,8.32a1.41,1.41,0,0,1-.49.09,1.33,1.33,0,0,1-1.16-.67,1.39,1.39,0,0,1,0-1.38c1.18-2.08.71-6.33-1-9.28-.63-1.08-2-2.89-3.86-2.89A5.18,5.18,0,0,0,370.43,60c-4.3,4.88-3.41,17.44-3.07,20.87H377c.11-.59.39-1.67,1.46-1.67h.28c1.6,0,1.6,1.69,1.6,3.18,0,1.77,0,4.2-1.92,4.2-.48,0-1.1-.21-1.32-1.24,0-.07,0-.17-.05-.21h0a1.75,1.75,0,0,0-.45,0h-8.39c.66,3.09,3,11.4,9.22,11.4,4.82,0,6-1.35,6.94-2.53l.22-.26a1.34,1.34,0,0,1,1-.48,1.36,1.36,0,0,1,1,.49,1.34,1.34,0,0,1,.3,1.11c-.74,4.22-4.29,6.36-10.54,6.36Zm-175.25,0c-1.76,0-17.17-.59-17.17-21.09s10.4-25.81,15.9-25.81c7.53,0,11.69,3.44,11.69,9.69,0,5.72-3.61,7.72-5.16,8.32a1.35,1.35,0,0,1-1.65-.58,1.39,1.39,0,0,1,0-1.38c1.17-2.08.7-6.33-1-9.29-.63-1.07-2-2.88-3.86-2.88A5.18,5.18,0,0,0,195.18,60c-4.3,4.88-3.41,17.44-3.08,20.87h9.69c.11-.59.38-1.67,1.46-1.67h.27c1.6,0,1.6,1.69,1.6,3.18,0,1.77,0,4.2-1.91,4.2-.48,0-1.1-.21-1.32-1.24a1.91,1.91,0,0,0-.06-.21h0a1.79,1.79,0,0,0-.46,0H193c.65,3.09,3,11.4,9.21,11.4,4.83,0,6-1.35,7-2.53l.22-.26a1.32,1.32,0,0,1,1-.48,1.36,1.36,0,0,1,1.05.49,1.3,1.3,0,0,1,.29,1.11c-.74,4.22-4.28,6.36-10.53,6.36ZM333,99.91l2.64-1.82c1.08-.75,2.3-2,2.35-2.56V58.2h-2.79V55h15V58.2h-2.79V95.55c6.2-.34,7.93-3.75,8-3.9l1.9.43v7.83Zm-22.79,0V96.66H313V60.45H307.2a1.91,1.91,0,0,1-1.91,1.83h-.38A1.92,1.92,0,0,1,303,60.37V55h29.5v5.42a1.92,1.92,0,0,1-1.92,1.91h-.37a1.92,1.92,0,0,1-1.92-1.83h-5.83V96.66h2.79v3.25Zm-32,0V96.66H281V60.45H275.2a1.91,1.91,0,0,1-1.91,1.83h-.38A1.92,1.92,0,0,1,271,60.37V55h29.5v5.42a1.92,1.92,0,0,1-1.92,1.91h-.37a1.92,1.92,0,0,1-1.92-1.83h-5.83V96.66h2.79v3.25Zm-26.25,0V96.66h2.79V58.2H252V55h15V58.2h-2.79V96.66H267v3.25Zm-26.47,0,2.65-1.82c1.1-.76,2.33-2,2.36-2.58V58.2h-2.79V55h15V58.2H240V95.55c6.2-.34,7.93-3.75,8-3.9l1.9.43v7.83Zm-60.45,0V96.66h2.79v-12h-8.08v12h2.79v3.25h-15V96.66h2.79V58.2h-2.79V55h15V58.2h-2.79V79h8.08V58.2h-2.79V55h15V58.2h-2.79V96.66h2.79v3.25Zm-42,0V96.66h2.79V60.45H120a1.92,1.92,0,0,1-1.92,1.83h-.37a1.92,1.92,0,0,1-1.92-1.91V55h29.5v5.42a1.92,1.92,0,0,1-1.92,1.91h-.63a1.61,1.61,0,0,1-1.19-.45,2,2,0,0,1-.47-1.39h-5.83V96.66h2.79v3.25Z"/><path class="cls-4" d="M375.79,100.37a16.61,16.61,0,0,1-9-2.84c-4.9-3.38-7.38-9.27-7.38-17.5,0-19.82,9.9-25.06,15.14-25.06,5,0,10.94,1.55,10.94,8.94,0,5.07-2.93,7-4.67,7.62a.6.6,0,0,1-.22,0,.6.6,0,0,1-.51-.29.61.61,0,0,1,0-.64c1.31-2.32.85-6.82-1-10-1.23-2.11-2.83-3.26-4.51-3.26a6,6,0,0,0-4.65,2.11C365,65,366.46,79.61,366.68,81.58h11s0-.31.05-.49c.09-.53.21-1.18.74-1.18h.28c.72,0,.85.64.85,2.43,0,2.24-.19,3.45-1.17,3.45-.45,0-.53-.39-.59-.65s-.18-.85-1.24-.85h-9.29c.32,1.92,2.54,12.9,10.12,12.9,5.17,0,6.47-1.55,7.51-2.8l.22-.26a.61.61,0,0,1,.93,0,.59.59,0,0,1,.13.5c-.67,3.81-4,5.74-9.8,5.74Zm-175.25,0a16.62,16.62,0,0,1-9-2.84c-4.9-3.38-7.38-9.27-7.38-17.5C184.12,60.21,194,55,199.27,55c5,0,10.94,1.55,10.94,8.94,0,5.07-2.93,7-4.68,7.62a.57.57,0,0,1-.22,0,.58.58,0,0,1-.51-.3.64.64,0,0,1,0-.63c1.31-2.32.85-6.82-1-10-1.23-2.11-2.83-3.26-4.51-3.26a6,6,0,0,0-4.66,2.11c-4.86,5.53-3.4,20.15-3.18,22.12h11s0-.31,0-.49c.1-.53.21-1.18.75-1.18h.27c.72,0,.85.64.85,2.43,0,2.24-.18,3.45-1.16,3.45-.45,0-.54-.39-.59-.65s-.18-.85-1.25-.85h-9.29c.33,1.92,2.54,12.9,10.12,12.9,5.17,0,6.47-1.55,7.52-2.8l.22-.26a.62.62,0,0,1,.45-.21.61.61,0,0,1,.61.72c-.67,3.81-4,5.74-9.8,5.74Zm134.9-1.21.67-.46c.73-.5,2.63-2,2.68-3.17V58.12a.67.67,0,0,0-.67-.67H336V55.7h13.5v1.75h-2.13a.66.66,0,0,0-.66.67v38.2c7.35-.09,9.41-4.31,9.44-4.35l.47-1v8.21Zm-24.44,0V97.41h2.12a.67.67,0,0,0,.67-.67V60.37a.67.67,0,0,0-.67-.67h-6a.66.66,0,0,0-.66.67,1.17,1.17,0,0,1-1.17,1.16h-.38a1.16,1.16,0,0,1-1.16-1.16V55.7h28v4.67a1.17,1.17,0,0,1-1.17,1.16h-.37A1.16,1.16,0,0,1,329,60.37a.67.67,0,0,0-.67-.67h-6a.66.66,0,0,0-.66.67V96.74a.66.66,0,0,0,.66.67h2.13v1.75Zm-32,0V97.41h2.12a.67.67,0,0,0,.67-.67V60.37a.67.67,0,0,0-.67-.67h-6a.66.66,0,0,0-.66.67,1.17,1.17,0,0,1-1.17,1.16h-.38a1.16,1.16,0,0,1-1.16-1.16V55.7h28v4.67a1.17,1.17,0,0,1-1.17,1.16h-.37A1.16,1.16,0,0,1,297,60.37a.67.67,0,0,0-.67-.67h-6a.66.66,0,0,0-.66.67V96.74a.66.66,0,0,0,.66.67h2.13v1.75Zm-26.25,0V97.41h2.12a.67.67,0,0,0,.67-.67V58.12a.67.67,0,0,0-.67-.67h-2.12V55.7h13.5v1.75h-2.13a.66.66,0,0,0-.66.67V96.74a.66.66,0,0,0,.66.67h2.13v1.75Zm-24.81,0,.67-.46c.73-.5,2.63-2,2.68-3.17V58.12a.67.67,0,0,0-.67-.67H228.5V55.7H242v1.75h-2.13a.66.66,0,0,0-.66.67v38.2c7.35-.09,9.41-4.31,9.44-4.35l.47-1v8.21Zm-62.11,0V97.41H168a.67.67,0,0,0,.66-.67V83.91H159V96.74a.67.67,0,0,0,.67.67h2.12v1.75h-13.5V97.41h2.13a.67.67,0,0,0,.66-.67V58.12a.67.67,0,0,0-.66-.67h-2.13V55.7h13.5v1.75h-2.12a.67.67,0,0,0-.67.67V79.78h9.58V58.12a.67.67,0,0,0-.66-.67h-2.13V55.7h13.5v1.75h-2.12a.67.67,0,0,0-.67.67V96.74a.67.67,0,0,0,.67.67h2.12v1.75Zm-42,0V97.41H126a.67.67,0,0,0,.66-.67V60.37a.67.67,0,0,0-.66-.67h-6a.67.67,0,0,0-.67.67,1.16,1.16,0,0,1-1.17,1.16h-.37a1.16,1.16,0,0,1-1.17-1.16V55.7h28v4.67a1.16,1.16,0,0,1-1.17,1.16h-.62a.87.87,0,0,1-.66-.22,1.32,1.32,0,0,1-.26-1,.67.67,0,0,0-.66-.67h-6a.67.67,0,0,0-.67.67V96.74a.67.67,0,0,0,.67.67h2.12v1.75Z"/><path class="cls-5" d="M374.52,55.22c5.38,0,10.69,1.81,10.69,8.69,0,5-2.9,6.77-4.51,7.39l-.13,0a.37.37,0,0,1-.3-.56c2.3-4.07-.7-13.66-5.75-13.66-11.23,0-8.06,24.73-8.06,24.73h11.25c.38,0,.21-1.67.79-1.67h.28c.4,0,.6.17.6,2.18,0,2.41-.25,3.2-.92,3.2s.17-1.5-1.83-1.5H367s1.83,13.4,10.42,13.4c5.65,0,6.82-1.86,7.92-3.14a.35.35,0,0,1,.27-.13.36.36,0,0,1,.35.43c-.93,5.29-7,5.53-9.55,5.53h-.66c-2.16,0-16.16-.75-16.16-20.09s9.52-24.81,14.89-24.81m-175.25,0c5.37,0,10.69,1.81,10.69,8.69,0,5-2.91,6.77-4.52,7.39l-.13,0a.36.36,0,0,1-.29-.56c2.3-4.07-.7-13.66-5.75-13.66-11.23,0-8.06,24.73-8.06,24.73h11.25c.37,0,.2-1.67.79-1.67h.27c.4,0,.6.17.6,2.18,0,2.41-.25,3.2-.91,3.2s.16-1.5-1.84-1.5h-9.58s1.83,13.4,10.41,13.4c5.66,0,6.82-1.86,7.93-3.14a.33.33,0,0,1,.26-.13.36.36,0,0,1,.36.43c-.93,5.29-7,5.53-9.55,5.53h-.66c-2.17,0-16.17-.75-16.17-20.09s9.52-24.81,14.9-24.81m150,.73V57.2h-1.88a.92.92,0,0,0-.91.92V96.58c7.83,0,9.91-4.5,9.91-4.5v6.83H336.25S339,97,339,95.52V58.12a.92.92,0,0,0-.92-.92h-1.87V56h13M331.5,56v4.42a.92.92,0,0,1-.92.91h-.37a.92.92,0,0,1-.92-.91.92.92,0,0,0-.92-.92h-6a.92.92,0,0,0-.91.92V96.74a.92.92,0,0,0,.91.92h1.88v1.25h-13V97.66h1.87a.92.92,0,0,0,.92-.92V60.37a.92.92,0,0,0-.92-.92h-6a.92.92,0,0,0-.91.92.92.92,0,0,1-.92.91h-.38a.91.91,0,0,1-.91-.91V56h27.5m-32,0v4.42a.92.92,0,0,1-.92.91h-.37a.92.92,0,0,1-.92-.91.92.92,0,0,0-.92-.92h-6a.92.92,0,0,0-.91.92V96.74a.92.92,0,0,0,.91.92h1.88v1.25h-13V97.66h1.87a.92.92,0,0,0,.92-.92V60.37a.92.92,0,0,0-.92-.92h-6a.92.92,0,0,0-.91.92.92.92,0,0,1-.92.91h-.38a.91.91,0,0,1-.91-.91V56h27.5M266,56V57.2h-1.88a.92.92,0,0,0-.91.92V96.74a.92.92,0,0,0,.91.92H266v1.25H253V97.66h1.87a.92.92,0,0,0,.92-.92V58.12a.92.92,0,0,0-.92-.92H253V56h13m-24.25,0V57.2h-1.88a.92.92,0,0,0-.91.92V96.58c7.83,0,9.91-4.5,9.91-4.5v6.83H228.75s2.75-1.89,2.79-3.39V58.12a.92.92,0,0,0-.92-.92h-1.87V56h13m-62.67,0V57.2h-1.87a.92.92,0,0,0-.92.92V96.74a.92.92,0,0,0,.92.92h1.87v1.25h-13V97.66H168a.92.92,0,0,0,.91-.92V83.66H158.79V96.74a.92.92,0,0,0,.92.92h1.87v1.25h-13V97.66h1.88a.92.92,0,0,0,.91-.92V58.12a.92.92,0,0,0-.91-.92h-1.88V56h13V57.2h-1.87a.92.92,0,0,0-.92.92V80h10.08V58.12a.92.92,0,0,0-.91-.92h-1.88V56h13m-34.75,0v4.42a.92.92,0,0,1-.92.91h-.62c-.39,0-.67-.07-.67-.92a.92.92,0,0,0-.91-.92h-6a.92.92,0,0,0-.92.92V96.74a.92.92,0,0,0,.92.92h1.87v1.25h-13V97.66H126a.92.92,0,0,0,.91-.92V60.37a.92.92,0,0,0-.91-.92h-6a.92.92,0,0,0-.92.92.92.92,0,0,1-.92.91h-.37a.92.92,0,0,1-.92-.91V56h27.5M339,95.52h0m-107.5,0h0m143-40.8c-5.32,0-15.39,5.29-15.39,25.31,0,8.32,2.52,14.28,7.48,17.71a16.89,16.89,0,0,0,9.18,2.88h.66c6,0,9.35-2,10.05-6a.88.88,0,0,0-.19-.7.83.83,0,0,0-.66-.31.87.87,0,0,0-.65.3l-.22.26c-1,1.21-2.27,2.71-7.32,2.71-7.08,0-9.36-9.89-9.83-12.4h9c.86,0,.92.26,1,.65s.18.85.83.85c1.31,0,1.42-1.68,1.42-3.7,0-1.67-.08-2.68-1.1-2.68h-.28c-.74,0-.89.83-1,1.38a2.93,2.93,0,0,1-.05.29H366.91c-.28-2.64-1.5-16.43,3.15-21.7a5.63,5.63,0,0,1,4.46-2c2.14,0,3.61,2,4.29,3.13,1.84,3.15,2.3,7.54,1,9.79a.87.87,0,0,0,0,.88.84.84,0,0,0,.73.42.85.85,0,0,0,.31-.06c1.8-.69,4.83-2.63,4.83-7.85,0-6-3.87-9.19-11.19-9.19Zm-175.25,0c-5.33,0-15.4,5.29-15.4,25.31,0,8.32,2.52,14.28,7.49,17.71a16.86,16.86,0,0,0,9.18,2.88h.66c6,0,9.35-2,10-6a.84.84,0,0,0-.18-.7.87.87,0,0,0-.67-.31.83.83,0,0,0-.64.3l-.22.26c-1,1.21-2.27,2.71-7.33,2.71-7.07,0-9.36-9.89-9.82-12.4h9c.87,0,.92.26,1,.65s.19.85.84.85c1.31,0,1.41-1.68,1.41-3.7,0-1.67-.07-2.68-1.1-2.68h-.27c-.74,0-.89.83-1,1.38l-.06.29H191.65c-.28-2.64-1.49-16.43,3.15-21.7a5.64,5.64,0,0,1,4.47-2c2.14,0,3.61,2,4.29,3.13,1.84,3.15,2.29,7.54,1,9.79a.89.89,0,0,0,0,.88.83.83,0,0,0,.72.42.81.81,0,0,0,.31-.06c1.81-.69,4.84-2.63,4.84-7.85,0-6-3.87-9.19-11.19-9.19Zm150.48.73h-14V57.7h2.37a.42.42,0,0,1,.42.42V95.49h0c0,.9-1.59,2.31-2.58,3l-1.32.91h22.23v-9.6l-.95,2.06c-.08.16-2,4-9,4.2V58.12a.41.41,0,0,1,.41-.42h2.38V55.45Zm-17.75,0H303.5v4.92a1.41,1.41,0,0,0,1.41,1.41h.38a1.42,1.42,0,0,0,1.42-1.41.41.41,0,0,1,.41-.42h6a.42.42,0,0,1,.42.42V96.74a.42.42,0,0,1-.42.42h-2.37v2.25h14V97.16h-2.38a.41.41,0,0,1-.41-.42V60.37a.41.41,0,0,1,.41-.42h6a.42.42,0,0,1,.42.42,1.41,1.41,0,0,0,1.42,1.41h.37A1.42,1.42,0,0,0,332,60.37V55.45Zm-32,0H271.5v4.92a1.41,1.41,0,0,0,1.41,1.41h.38a1.42,1.42,0,0,0,1.42-1.41.41.41,0,0,1,.41-.42h6a.42.42,0,0,1,.42.42V96.74a.42.42,0,0,1-.42.42h-2.37v2.25h14V97.16h-2.38a.41.41,0,0,1-.41-.42V60.37a.41.41,0,0,1,.41-.42h6a.42.42,0,0,1,.42.42,1.41,1.41,0,0,0,1.42,1.41h.37A1.42,1.42,0,0,0,300,60.37V55.45Zm-33.5,0h-14V57.7h2.37a.42.42,0,0,1,.42.42V96.74a.42.42,0,0,1-.42.42H252.5v2.25h14V97.16h-2.38a.41.41,0,0,1-.41-.42V58.12a.41.41,0,0,1,.41-.42h2.38V55.45Zm-24.25,0h-14V57.7h2.37a.42.42,0,0,1,.42.42V95.49h0c0,.9-1.59,2.31-2.58,3l-1.32.91h22.23v-9.6l-1,2.06c-.08.16-2,4-9,4.2V58.12a.41.41,0,0,1,.41-.42h2.38V55.45Zm-62.67,0h-14V57.7H168a.42.42,0,0,1,.41.42V79.53h-9.08V58.12a.42.42,0,0,1,.42-.42h2.37V55.45h-14V57.7h2.38a.42.42,0,0,1,.41.42V96.74a.42.42,0,0,1-.41.42h-2.38v2.25h14V97.16h-2.37a.42.42,0,0,1-.42-.42V84.16h9.08V96.74a.42.42,0,0,1-.41.42h-2.38v2.25h14V97.16h-2.37a.42.42,0,0,1-.42-.42V58.12a.42.42,0,0,1,.42-.42h2.37V55.45Zm-34.75,0h-28.5v4.92a1.42,1.42,0,0,0,1.42,1.41h.37a1.42,1.42,0,0,0,1.42-1.41A.42.42,0,0,1,120,60h6a.42.42,0,0,1,.41.42V96.74a.42.42,0,0,1-.41.42h-2.38v2.25h14V97.16h-2.37a.42.42,0,0,1-.42-.42V60.37a.42.42,0,0,1,.42-.42h6a.42.42,0,0,1,.41.42c0,1,.37,1.42,1.17,1.42h.62a1.42,1.42,0,0,0,1.42-1.41V55.45Z"/><path class="cls-6" d="M268.21,34.9a22.79,22.79,0,0,1,2-5.27c.1-.21.24-.39.06-.66-1.52-2.27-1.05-4.57-.05-6.85a15.17,15.17,0,0,1,3.32-4.86,6,6,0,0,1,.77-.65c.21-.15.46-.33.75-.14s.24.47.19.75a7,7,0,0,1-.75,1.94,47.88,47.88,0,0,0-2.15,4.3,2.44,2.44,0,0,0-.07,2.2c.33,0,.37-.35.52-.56a28.09,28.09,0,0,1,5.38-6c.36-.28.73-.55,1.11-.8,2.07-1.32,3.07-1,4.17,1.18a6.83,6.83,0,0,1,.46,4.8c-1,4.05-5.3,7.76-9.35,7.61A1.33,1.33,0,0,0,273,33c-.26.9-.58,1.78-.9,2.75l-.64,2.51q-.48,3.06-1,6.11c-.21,1.11-.56,1.23-1.45.52-1.23-1-2.14-2.16-1.86-3.89C267.21,40.08,267.78,37,268.21,34.9Zm14.05-12.71c0-.6.1-1.34-.52-1.64s-1.07.38-1.54.7a3.59,3.59,0,0,0-.4.38,26.23,26.23,0,0,0-4.33,6.16c-.33.61.06.62.43.6C279,28.19,282.27,25.66,282.26,22.19ZM195.49,25.1c0,1.82.06,3.65.16,5.47,0,.39.08.59.52.65,5.06.74,10,.6,14.56-2.12,3.94-2.37,5.15-6.32,3.31-10.53a19.41,19.41,0,0,0-6.1-7.37,41.34,41.34,0,0,0-18.75-8.14,32.37,32.37,0,0,0-10.89-.21,1.56,1.56,0,0,0-.44.08c-.41.17-1,.17-1.09.67s.58.39.91.55.47.2.46.5a.6.6,0,0,1-.47.51,2.72,2.72,0,0,1-2.52-.3c-.4-.26-.39-.63-.16-1a4.62,4.62,0,0,1,2.46-2.28,19.14,19.14,0,0,1,7-1,46.89,46.89,0,0,1,18.74,4,31.67,31.67,0,0,1,12.43,9.42,14.36,14.36,0,0,1,3.24,7.5,10.5,10.5,0,0,1-4.65,9.81,20.4,20.4,0,0,1-10.45,3.57,19.33,19.33,0,0,1-7.49-.66c-.38-.12-.55-.13-.63.38-.18,1.19-.59,1.52-1.63,1.56s-1.5-.37-1.82-1.43a1,1,0,0,1-.12-.43c.15-1.42-.7-2-1.83-2.61a25.12,25.12,0,0,1-7.41-5.83c-2.18-2.58-1.89-4.05,1.08-5.68a23.85,23.85,0,0,1,7.39-2.42c.64-.11.74-.36.77-.93a24.49,24.49,0,0,1,.67-5.59c.13-.45.16-1,.81-1s.88.49,1.06,1a14.21,14.21,0,0,1,.72,4.93c0,.8.16,1.13,1.1,1.08a23.18,23.18,0,0,1,9,1.24A7.12,7.12,0,0,1,208,19.93a2.71,2.71,0,0,1,.38,3.63A3.09,3.09,0,0,1,205,25.17c-.45-.11-.46-.38-.32-.67a3.43,3.43,0,0,1,.57-.7c1-1.05.85-1.66-.53-2.18a18.07,18.07,0,0,0-4.55-.83c-1.24-.12-2.49-.1-3.73-.19-.68-.06-1,.07-.94.85C195.55,22.66,195.49,23.88,195.49,25.1Zm-3.59,5c0-3.07,0-5.95,0-8.84,0-.38-.09-.56-.51-.52A33.08,33.08,0,0,0,183.68,22c-1.6.55-1.77,1.15-.68,2.43C185.32,27.18,188.41,28.76,191.9,30.13Zm44.41-6.05c1,.31,2.14.56,2.3,1.89.1.89-.65,1.59-2.18,2.1a17.39,17.39,0,0,1-6.21.69,2.38,2.38,0,0,1-1.28-.44,1.09,1.09,0,0,1-.53-1.25,1,1,0,0,1,1.09-.66,7.27,7.27,0,0,1,2.64.61,5.74,5.74,0,0,0,3.75,0c.46-.16,1-.37,1-.94s-.56-.67-1-.78a17.52,17.52,0,0,0-6.32-.45c-2.39.25-3.22,2.44-1.76,4.35a5.11,5.11,0,0,0,1.64,1.43,9.91,9.91,0,0,0,8.28.52,4.93,4.93,0,0,0,2.91-2.47c1.5-3-.19-6-3.72-6.66a27.53,27.53,0,0,0-3.63-.22,15.87,15.87,0,0,1-3.43-.43c-.25-.07-.57-.15-.57-.5s.28-.43.54-.53a4.14,4.14,0,0,1,.6-.18,33.76,33.76,0,0,1,4.71-.52,19.53,19.53,0,0,0,5.2-.82c.55-.21,1.13-.5,1.06-1.19s-.67-.63-1.12-.73a19.24,19.24,0,0,0-12.08,1.3,4,4,0,0,0-2,1.7,2.18,2.18,0,0,0,1.42,3.41,16.21,16.21,0,0,0,4.34.31A14.06,14.06,0,0,1,236.31,24.08Zm64,0c1,.31,2.14.56,2.3,1.89.1.89-.65,1.59-2.18,2.1a17.39,17.39,0,0,1-6.21.69,2.38,2.38,0,0,1-1.28-.44,1.07,1.07,0,0,1-.52-1.25,1,1,0,0,1,1.08-.66,7.27,7.27,0,0,1,2.64.61,5.74,5.74,0,0,0,3.75,0c.46-.16,1-.37,1-.94s-.56-.67-1-.78a17.57,17.57,0,0,0-6.33-.45c-2.39.25-3.22,2.44-1.76,4.35a5.11,5.11,0,0,0,1.64,1.43,9.92,9.92,0,0,0,8.28.52,4.93,4.93,0,0,0,2.91-2.47c1.51-3-.19-6-3.71-6.66a27.78,27.78,0,0,0-3.64-.22,15.87,15.87,0,0,1-3.43-.43c-.25-.07-.56-.15-.57-.5s.28-.43.54-.53a3.92,3.92,0,0,1,.61-.18,33.62,33.62,0,0,1,4.7-.52,19.53,19.53,0,0,0,5.2-.82c.55-.21,1.13-.5,1.07-1.19s-.68-.63-1.13-.73a19.24,19.24,0,0,0-12.08,1.3,4,4,0,0,0-2,1.7,2.18,2.18,0,0,0,1.41,3.41,16.25,16.25,0,0,0,4.35.31A14,14,0,0,1,300.3,24.08Zm-38.15-3.36a.81.81,0,0,1,1-.75,15.63,15.63,0,0,0,2.37,0,9.21,9.21,0,0,0,3-.35c.52-.23,1.1-.54.91-1.27a3.5,3.5,0,0,0-2.63-2,39.76,39.76,0,0,0-9.26,1.35c-.3.07-.59.21-.44.63.22.63.53,1.25,1.25,1.29,1,.06.93.51.63,1.2a8.1,8.1,0,0,0-.42,1.29.83.83,0,0,1-.56.65,1.32,1.32,0,0,0-.78,1.86,2,2,0,0,1-.09,1.63c-.18.45-.32.91-.47,1.37a3.93,3.93,0,0,0,3.88,5,11,11,0,0,0,6-2.89,1.23,1.23,0,0,0,.47-1.66,1.33,1.33,0,0,0-1.69-.67l-4.18.92c-.81.17-1.12-.12-.95-1,.1-.53.32-1,.45-1.57a.8.8,0,0,1,.87-.69c1.36,0,2.73-.16,4.08-.29,1-.1,1.27-.52,1.21-1.55-.06-.86-.64-1-1.33-1-1.21,0-2.42.11-3.74.17C261.85,21.76,262,21.25,262.15,20.72Zm-16.57,2.66c0-.25.09-.6.41-.64s.39.26.51.46l.68,1.18a23.78,23.78,0,0,0,3.25,5.24,2,2,0,0,0,3.41-.32,4.41,4.41,0,0,0,.56-1.13A14,14,0,0,0,252,15.36c-.34-.46-.85-1.11-1.49-.72s-.22,1-.08,1.6a44.41,44.41,0,0,1,1.71,8c0,.52.23,1.32-.29,1.51s-.77-.61-1.1-1c-.19-.23-.33-.51-.5-.76a54.11,54.11,0,0,0-3.33-5c-.49-.59-1-1.43-1.87-1.25s-1.1,1.06-1.37,1.8a29.86,29.86,0,0,0-1.44,7.2,6.39,6.39,0,0,0,.31,3.57c.33.7.72,1.48,1.62,1.34s.95-1,1-1.74c.07-.88,0-1.76,0-2.31A30.8,30.8,0,0,1,245.58,23.38ZM222.9,14.54a3,3,0,0,1-.73-.1c-.78-.23-1.41-.33-2,.53a.78.78,0,0,1-1.44-.36c-.15-1.59-1-2.95-1.27-4.46a3.18,3.18,0,0,1,.71-2.57,9.86,9.86,0,0,1,8.89-4.18,2.79,2.79,0,0,1,2.35,1.16c.17.27.43.17.65.22a2.57,2.57,0,0,1,2,3.64C230.86,11.43,226.34,14.54,222.9,14.54Zm.9-2.52a7.49,7.49,0,0,0,5.78-2.8c.51-.67,1-1.55.38-2.34s-1.58-.45-2.37-.1A14,14,0,0,0,223,10.26c-.37.41-1.09.9-.85,1.37S223.19,12,223.8,12Zm-4.11-1.81a17,17,0,0,1,5.06-4.34c-1.69-.69-2.83.11-3.85,1.17C220.12,7.84,219.32,8.68,219.69,10.21Zm1.19,16.62a16.66,16.66,0,0,0,.19,3.53c.18.79.44,1.55,1.39,1.71,1.18.2,1.91-.5,1.82-2-.19-2.79.16-5.58-.05-8.36a12,12,0,0,0-.53-3.58c-.18-.46-.42-.87-1-.9s-.92.4-1.1.9a6.72,6.72,0,0,0-.34,1.22,34.33,34.33,0,0,0-.37,6.16ZM288.7,16.71c0,.75-.56,1.25-1.37,1.5s-1.44.44-.94.94,3.44.12,3.44-2.76-1.5-3.3-2.13-3.3-1.94-.07-1.94,1.81,1.94,1.19,1.94,1.19S288.7,16,288.7,16.71Z"/><path class="cls-7" d="M268.21,34.9a22.79,22.79,0,0,1,2-5.27c.1-.21.24-.39.06-.66-1.52-2.27-1.05-4.57-.05-6.85a15.17,15.17,0,0,1,3.32-4.86,6,6,0,0,1,.77-.65c.21-.15.46-.33.75-.14s.24.47.19.75a7,7,0,0,1-.75,1.94,47.88,47.88,0,0,0-2.15,4.3,2.44,2.44,0,0,0-.07,2.2c.33,0,.37-.35.52-.56a28.09,28.09,0,0,1,5.38-6c.36-.28.73-.55,1.11-.8,2.07-1.32,3.07-1,4.17,1.18a6.83,6.83,0,0,1,.46,4.8c-1,4.05-5.3,7.76-9.35,7.61A1.33,1.33,0,0,0,273,33c-.26.9-.58,1.78-.9,2.75l-.64,2.51q-.48,3.06-1,6.11c-.21,1.11-.56,1.23-1.45.52-1.23-1-2.14-2.16-1.86-3.89C267.21,40.08,267.78,37,268.21,34.9Zm14.05-12.71c0-.6.1-1.34-.52-1.64s-1.07.38-1.54.7a3.59,3.59,0,0,0-.4.38,26.23,26.23,0,0,0-4.33,6.16c-.33.61.06.62.43.6C279,28.19,282.27,25.66,282.26,22.19ZM195.49,25.1c0,1.82.06,3.65.16,5.47,0,.39.08.59.52.65,5.06.74,10,.6,14.56-2.12,3.94-2.37,5.15-6.32,3.31-10.53a19.41,19.41,0,0,0-6.1-7.37,41.34,41.34,0,0,0-18.75-8.14,32.37,32.37,0,0,0-10.89-.21,1.56,1.56,0,0,0-.44.08c-.41.17-1,.17-1.09.67s.58.39.91.55.47.2.46.5a.6.6,0,0,1-.47.51,2.72,2.72,0,0,1-2.52-.3c-.4-.26-.39-.63-.16-1a4.62,4.62,0,0,1,2.46-2.28,19.14,19.14,0,0,1,7-1,46.89,46.89,0,0,1,18.74,4,31.67,31.67,0,0,1,12.43,9.42,14.36,14.36,0,0,1,3.24,7.5,10.5,10.5,0,0,1-4.65,9.81,20.4,20.4,0,0,1-10.45,3.57,19.33,19.33,0,0,1-7.49-.66c-.38-.12-.55-.13-.63.38-.18,1.19-.59,1.52-1.63,1.56s-1.5-.37-1.82-1.43a1,1,0,0,1-.12-.43c.15-1.42-.7-2-1.83-2.61a25.12,25.12,0,0,1-7.41-5.83c-2.18-2.58-1.89-4.05,1.08-5.68a23.85,23.85,0,0,1,7.39-2.42c.64-.11.74-.36.77-.93a24.49,24.49,0,0,1,.67-5.59c.13-.45.16-1,.81-1s.88.49,1.06,1a14.21,14.21,0,0,1,.72,4.93c0,.8.16,1.13,1.1,1.08a23.18,23.18,0,0,1,9,1.24A7.12,7.12,0,0,1,208,19.93a2.71,2.71,0,0,1,.38,3.63A3.09,3.09,0,0,1,205,25.17c-.45-.11-.46-.38-.32-.67a3.43,3.43,0,0,1,.57-.7c1-1.05.85-1.66-.53-2.18a18.07,18.07,0,0,0-4.55-.83c-1.24-.12-2.49-.1-3.73-.19-.68-.06-1,.07-.94.85C195.55,22.66,195.49,23.88,195.49,25.1Zm-3.59,5c0-3.07,0-5.95,0-8.84,0-.38-.09-.56-.51-.52A33.08,33.08,0,0,0,183.68,22c-1.6.55-1.77,1.15-.68,2.43C185.32,27.18,188.41,28.76,191.9,30.13Zm44.41-6.05c1,.31,2.14.56,2.3,1.89.1.89-.65,1.59-2.18,2.1a17.39,17.39,0,0,1-6.21.69,2.38,2.38,0,0,1-1.28-.44,1.09,1.09,0,0,1-.53-1.25,1,1,0,0,1,1.09-.66,7.27,7.27,0,0,1,2.64.61,5.74,5.74,0,0,0,3.75,0c.46-.16,1-.37,1-.94s-.56-.67-1-.78a17.52,17.52,0,0,0-6.32-.45c-2.39.25-3.22,2.44-1.76,4.35a5.11,5.11,0,0,0,1.64,1.43,9.91,9.91,0,0,0,8.28.52,4.93,4.93,0,0,0,2.91-2.47c1.5-3-.19-6-3.72-6.66a27.53,27.53,0,0,0-3.63-.22,15.87,15.87,0,0,1-3.43-.43c-.25-.07-.57-.15-.57-.5s.28-.43.54-.53a4.14,4.14,0,0,1,.6-.18,33.76,33.76,0,0,1,4.71-.52,19.53,19.53,0,0,0,5.2-.82c.55-.21,1.13-.5,1.06-1.19s-.67-.63-1.12-.73a19.24,19.24,0,0,0-12.08,1.3,4,4,0,0,0-2,1.7,2.18,2.18,0,0,0,1.42,3.41,16.21,16.21,0,0,0,4.34.31A14.06,14.06,0,0,1,236.31,24.08Zm64,0c1,.31,2.14.56,2.3,1.89.1.89-.65,1.59-2.18,2.1a17.39,17.39,0,0,1-6.21.69,2.38,2.38,0,0,1-1.28-.44,1.07,1.07,0,0,1-.52-1.25,1,1,0,0,1,1.08-.66,7.27,7.27,0,0,1,2.64.61,5.74,5.74,0,0,0,3.75,0c.46-.16,1-.37,1-.94s-.56-.67-1-.78a17.57,17.57,0,0,0-6.33-.45c-2.39.25-3.22,2.44-1.76,4.35a5.11,5.11,0,0,0,1.64,1.43,9.92,9.92,0,0,0,8.28.52,4.93,4.93,0,0,0,2.91-2.47c1.51-3-.19-6-3.71-6.66a27.78,27.78,0,0,0-3.64-.22,15.87,15.87,0,0,1-3.43-.43c-.25-.07-.56-.15-.57-.5s.28-.43.54-.53a3.92,3.92,0,0,1,.61-.18,33.62,33.62,0,0,1,4.7-.52,19.53,19.53,0,0,0,5.2-.82c.55-.21,1.13-.5,1.07-1.19s-.68-.63-1.13-.73a19.24,19.24,0,0,0-12.08,1.3,4,4,0,0,0-2,1.7,2.18,2.18,0,0,0,1.41,3.41,16.25,16.25,0,0,0,4.35.31A14,14,0,0,1,300.3,24.08Zm-38.15-3.36a.81.81,0,0,1,1-.75,15.63,15.63,0,0,0,2.37,0,9.21,9.21,0,0,0,3-.35c.52-.23,1.1-.54.91-1.27a3.5,3.5,0,0,0-2.63-2,39.76,39.76,0,0,0-9.26,1.35c-.3.07-.59.21-.44.63.22.63.53,1.25,1.25,1.29,1,.06.93.51.63,1.2a8.1,8.1,0,0,0-.42,1.29.83.83,0,0,1-.56.65,1.32,1.32,0,0,0-.78,1.86,2,2,0,0,1-.09,1.63c-.18.45-.32.91-.47,1.37a3.93,3.93,0,0,0,3.88,5,11,11,0,0,0,6-2.89,1.23,1.23,0,0,0,.47-1.66,1.33,1.33,0,0,0-1.69-.67l-4.18.92c-.81.17-1.12-.12-.95-1,.1-.53.32-1,.45-1.57a.8.8,0,0,1,.87-.69c1.36,0,2.73-.16,4.08-.29,1-.1,1.27-.52,1.21-1.55-.06-.86-.64-1-1.33-1-1.21,0-2.42.11-3.74.17C261.85,21.76,262,21.25,262.15,20.72Zm-16.57,2.66c0-.25.09-.6.41-.64s.39.26.51.46l.68,1.18a23.78,23.78,0,0,0,3.25,5.24,2,2,0,0,0,3.41-.32,4.41,4.41,0,0,0,.56-1.13A14,14,0,0,0,252,15.36c-.34-.46-.85-1.11-1.49-.72s-.22,1-.08,1.6a44.41,44.41,0,0,1,1.71,8c0,.52.23,1.32-.29,1.51s-.77-.61-1.1-1c-.19-.23-.33-.51-.5-.76a54.11,54.11,0,0,0-3.33-5c-.49-.59-1-1.43-1.87-1.25s-1.1,1.06-1.37,1.8a29.86,29.86,0,0,0-1.44,7.2,6.39,6.39,0,0,0,.31,3.57c.33.7.72,1.48,1.62,1.34s.95-1,1-1.74c.07-.88,0-1.76,0-2.31A30.8,30.8,0,0,1,245.58,23.38ZM222.9,14.54a3,3,0,0,1-.73-.1c-.78-.23-1.41-.33-2,.53a.78.78,0,0,1-1.44-.36c-.15-1.59-1-2.95-1.27-4.46a3.18,3.18,0,0,1,.71-2.57,9.86,9.86,0,0,1,8.89-4.18,2.79,2.79,0,0,1,2.35,1.16c.17.27.43.17.65.22a2.57,2.57,0,0,1,2,3.64C230.86,11.43,226.34,14.54,222.9,14.54Zm.9-2.52a7.49,7.49,0,0,0,5.78-2.8c.51-.67,1-1.55.38-2.34s-1.58-.45-2.37-.1A14,14,0,0,0,223,10.26c-.37.41-1.09.9-.85,1.37S223.19,12,223.8,12Zm-4.11-1.81a17,17,0,0,1,5.06-4.34c-1.69-.69-2.83.11-3.85,1.17C220.12,7.84,219.32,8.68,219.69,10.21Zm1.19,16.62a16.66,16.66,0,0,0,.19,3.53c.18.79.44,1.55,1.39,1.71,1.18.2,1.91-.5,1.82-2-.19-2.79.16-5.58-.05-8.36a12,12,0,0,0-.53-3.58c-.18-.46-.42-.87-1-.9s-.92.4-1.1.9a6.72,6.72,0,0,0-.34,1.22,34.33,34.33,0,0,0-.37,6.16ZM288.7,16.71c0,.75-.56,1.25-1.37,1.5s-1.44.44-.94.94,3.44.12,3.44-2.76-1.5-3.3-2.13-3.3-1.94-.07-1.94,1.81,1.94,1.19,1.94,1.19S288.7,16,288.7,16.71Z"/><path class="cls-8" d="M183.88.5h.56a46.89,46.89,0,0,1,18.74,4,31.67,31.67,0,0,1,12.43,9.42,14.36,14.36,0,0,1,3.24,7.5,10.5,10.5,0,0,1-4.65,9.81,20.4,20.4,0,0,1-10.45,3.57c-.73.06-1.44.1-2.16.1a18.27,18.27,0,0,1-5.33-.76,1.16,1.16,0,0,0-.32-.07c-.17,0-.26.11-.31.45-.18,1.19-.59,1.52-1.63,1.56h-.12c-.91,0-1.39-.41-1.7-1.43a1,1,0,0,1-.12-.43c.15-1.42-.7-2-1.83-2.61a25.12,25.12,0,0,1-7.41-5.83c-2.18-2.58-1.89-4.05,1.08-5.68a23.85,23.85,0,0,1,7.39-2.42c.64-.11.74-.36.77-.93a24.49,24.49,0,0,1,.67-5.59c.13-.45.16-1,.81-1h0c.61,0,.87.49,1,1a14.21,14.21,0,0,1,.72,4.93c0,.76.14,1.09.94,1.09h.16l1.31,0a22.56,22.56,0,0,1,7.66,1.27A7.12,7.12,0,0,1,208,19.93a2.71,2.71,0,0,1,.38,3.63,3.17,3.17,0,0,1-2.72,1.7,3,3,0,0,1-.73-.09c-.45-.11-.46-.38-.32-.67a3.43,3.43,0,0,1,.57-.7c1-1.05.85-1.66-.53-2.18a18.07,18.07,0,0,0-4.55-.83c-1.24-.12-2.49-.1-3.73-.19h-.24c-.51,0-.74.18-.7.86.08,1.21,0,2.43,0,3.65,0,1.82.06,3.65.16,5.47,0,.39.08.59.52.65a33,33,0,0,0,4.83.38,18.42,18.42,0,0,0,9.73-2.5c3.94-2.37,5.15-6.32,3.31-10.53a19.41,19.41,0,0,0-6.1-7.37,41.34,41.34,0,0,0-18.75-8.14,37,37,0,0,0-6.28-.58,27.64,27.64,0,0,0-4.61.37,1.56,1.56,0,0,0-.44.08c-.41.17-1,.17-1.09.67s.58.39.91.55.47.2.46.5a.6.6,0,0,1-.47.51,3.31,3.31,0,0,1-1,.18,2.7,2.7,0,0,1-1.51-.48c-.4-.26-.39-.63-.16-1a4.62,4.62,0,0,1,2.46-2.28,18.6,18.6,0,0,1,6.43-1m8,29.63c0-3.07,0-5.95,0-8.84,0-.35-.07-.52-.4-.52h-.11A33.08,33.08,0,0,0,183.68,22c-1.6.55-1.77,1.15-.68,2.43,2.32,2.74,5.41,4.32,8.9,5.69M226.2,3.37l.87,0a2.79,2.79,0,0,1,2.35,1.16c.17.27.43.17.65.22a2.57,2.57,0,0,1,2,3.64c-1.2,3-5.72,6.12-9.16,6.12a3,3,0,0,1-.73-.1,3.15,3.15,0,0,0-.86-.16,1.3,1.3,0,0,0-1.13.69.78.78,0,0,1-.66.36.77.77,0,0,1-.78-.72c-.15-1.59-1-2.95-1.27-4.46a3.18,3.18,0,0,1,.71-2.57,9.92,9.92,0,0,1,8-4.21m-6.51,6.84a17,17,0,0,1,5.06-4.34,3.1,3.1,0,0,0-1.2-.26A3.78,3.78,0,0,0,220.9,7c-.78.8-1.58,1.64-1.21,3.17M223.36,12h.44a7.49,7.49,0,0,0,5.78-2.8c.51-.67,1-1.55.38-2.34a1.28,1.28,0,0,0-1-.48,3.57,3.57,0,0,0-1.35.38A14,14,0,0,0,223,10.26c-.37.41-1.09.9-.85,1.37s.73.39,1.25.39m64.22,1.07h.12c.63,0,2.13.42,2.13,3.3a2.78,2.78,0,0,1-2.76,2.95,1,1,0,0,1-.68-.19c-.5-.5.12-.69.94-.94s1.37-.75,1.37-1.5c0-.56-.56-.63-.84-.63h-.16a2.49,2.49,0,0,1-.74.12c-.55,0-1.2-.23-1.2-1.31,0-1.76,1.16-1.81,1.82-1.81m-36.69,1.43c.46,0,.82.48,1.09.84a14,14,0,0,1,2.42,12.81,4.41,4.41,0,0,1-.56,1.13,2.18,2.18,0,0,1-1.77,1.15,2.33,2.33,0,0,1-1.64-.83,23.78,23.78,0,0,1-3.25-5.24l-.68-1.18c-.11-.19-.22-.46-.47-.46h0c-.32,0-.36.39-.41.64a30.8,30.8,0,0,0-.41,4.22c0,.55.05,1.43,0,2.31-.05.72-.1,1.6-1,1.74l-.2,0c-.76,0-1.12-.71-1.42-1.36a6.39,6.39,0,0,1-.31-3.57,29.86,29.86,0,0,1,1.44-7.2c.27-.74.51-1.62,1.37-1.8a1.1,1.1,0,0,1,.25,0c.75,0,1.17.73,1.62,1.27a54.11,54.11,0,0,1,3.33,5c.17.25.31.53.5.76s.48,1,.92,1a.39.39,0,0,0,.18,0c.52-.19.32-1,.29-1.51a44.41,44.41,0,0,0-1.71-8c-.14-.56-.48-1.25.08-1.6a.8.8,0,0,1,.4-.12m15.87,1.84a3.52,3.52,0,0,1,2.62,2c.19.73-.39,1-.91,1.27a9.21,9.21,0,0,1-3,.35c-.39,0-.78,0-1.17,0s-.8,0-1.2-.05H263c-.5,0-.73.23-.84.75s-.3,1-.5,1.68c1.32-.06,2.53-.13,3.74-.17h.1c.65,0,1.18.19,1.23,1,.06,1-.22,1.45-1.21,1.55-1.35.13-2.72.24-4.08.29a.8.8,0,0,0-.87.69c-.13.53-.35,1-.45,1.57-.14.69,0,1,.55,1a2.08,2.08,0,0,0,.4-.05l4.18-.92a2.72,2.72,0,0,1,.55-.06,1.17,1.17,0,0,1,1.14.73,1.23,1.23,0,0,1-.47,1.66,11,11,0,0,1-6,2.89l-.3,0a4,4,0,0,1-3.58-5c.15-.46.29-.92.47-1.37a2,2,0,0,0,.09-1.63,1.32,1.32,0,0,1,.78-1.86.83.83,0,0,0,.56-.65,8.1,8.1,0,0,1,.42-1.29c.3-.69.36-1.14-.63-1.2-.72,0-1-.66-1.25-1.29-.15-.42.14-.56.44-.63a39.76,39.76,0,0,1,9.26-1.35h0m8,0a.44.44,0,0,1,.26.08c.27.19.24.47.19.75a7,7,0,0,1-.75,1.94,47.88,47.88,0,0,0-2.15,4.3,2.44,2.44,0,0,0-.07,2.2c.33,0,.37-.35.52-.56a28.09,28.09,0,0,1,5.38-6c.36-.28.73-.55,1.11-.8a4,4,0,0,1,2-.79c.85,0,1.48.64,2.15,2a6.83,6.83,0,0,1,.46,4.8c-1,4-5.14,7.62-9.12,7.62h-.37A1.29,1.29,0,0,0,273,33c-.26.9-.58,1.78-.9,2.75l-.64,2.51q-.48,3.06-1,6.11c-.12.65-.3,1-.6,1a1.66,1.66,0,0,1-.85-.45c-1.23-1-2.14-2.16-1.86-3.89.14-.9.71-4,1.14-6.08a22.79,22.79,0,0,1,2-5.27c.1-.21.24-.39.06-.66-1.52-2.27-1.05-4.57-.05-6.85a15.17,15.17,0,0,1,3.32-4.86,6,6,0,0,1,.77-.65,1,1,0,0,1,.49-.22m1,12h.16c3.1-.2,6.37-2.73,6.36-6.2,0-.6.1-1.34-.52-1.64a.88.88,0,0,0-.33-.08c-.47,0-.82.51-1.21.78a3.59,3.59,0,0,0-.4.38,26.23,26.23,0,0,0-4.33,6.16c-.29.52,0,.6.27.6m24.53-11.93a17.63,17.63,0,0,1,4,.46c.45.1,1.07.14,1.13.73s-.52,1-1.07,1.19a19.53,19.53,0,0,1-5.2.82,33.62,33.62,0,0,0-4.7.52,3.92,3.92,0,0,0-.61.18c-.26.1-.55.2-.54.53s.32.43.57.5a15.87,15.87,0,0,0,3.43.43,27.78,27.78,0,0,1,3.64.22c3.52.66,5.22,3.67,3.71,6.66a4.93,4.93,0,0,1-2.91,2.47,11.29,11.29,0,0,1-3.7.66,9.5,9.5,0,0,1-4.58-1.18,5.11,5.11,0,0,1-1.64-1.43c-1.46-1.91-.63-4.1,1.76-4.35a18.39,18.39,0,0,1,2-.11,17.12,17.12,0,0,1,4.37.56c.43.11,1,.24,1,.78s-.52.78-1,.94a5.28,5.28,0,0,1-1.78.3,6.44,6.44,0,0,1-2-.32,7.86,7.86,0,0,0-2.48-.62h-.16a1,1,0,0,0-1.08.66,1.07,1.07,0,0,0,.52,1.25,2.38,2.38,0,0,0,1.28.44l1.19,0a15.88,15.88,0,0,0,5-.71c1.53-.51,2.28-1.21,2.18-2.1-.16-1.33-1.31-1.58-2.3-1.89a12.44,12.44,0,0,0-3.74-.44H294.8a12.14,12.14,0,0,1-3.18-.32,2.18,2.18,0,0,1-1.41-3.41,4,4,0,0,1,2-1.7,20.62,20.62,0,0,1,8.1-1.76m-64,0a17.65,17.65,0,0,1,4,.46c.45.1,1.07.14,1.12.73s-.51,1-1.06,1.19a19.53,19.53,0,0,1-5.2.82,33.76,33.76,0,0,0-4.71.52,4.14,4.14,0,0,0-.6.18c-.26.1-.55.2-.54.53s.32.43.57.5a15.87,15.87,0,0,0,3.43.43,27.53,27.53,0,0,1,3.63.22c3.53.66,5.22,3.67,3.72,6.66a4.93,4.93,0,0,1-2.91,2.47,11.34,11.34,0,0,1-3.7.66,9.47,9.47,0,0,1-4.58-1.18,5.11,5.11,0,0,1-1.64-1.43c-1.46-1.91-.63-4.1,1.76-4.35a18.25,18.25,0,0,1,2-.11,17,17,0,0,1,4.36.56c.44.11,1,.24,1,.78s-.52.78-1,.94a5.28,5.28,0,0,1-1.78.3,6.4,6.4,0,0,1-2-.32,7.92,7.92,0,0,0-2.49-.62h-.15a1,1,0,0,0-1.09.66,1.09,1.09,0,0,0,.53,1.25,2.38,2.38,0,0,0,1.28.44l1.18,0a15.9,15.9,0,0,0,5-.71c1.53-.51,2.28-1.21,2.18-2.1-.16-1.33-1.31-1.58-2.3-1.89a12.47,12.47,0,0,0-3.75-.44H230.8a12.11,12.11,0,0,1-3.17-.32,2.18,2.18,0,0,1-1.42-3.41,4,4,0,0,1,2-1.7,20.61,20.61,0,0,1,8.09-1.76m-13.64.81h.06c.59,0,.83.44,1,.9a12,12,0,0,1,.53,3.58c.21,2.78-.14,5.57.05,8.36.08,1.29-.48,2-1.44,2l-.38,0c-1-.16-1.21-.92-1.39-1.71a16.66,16.66,0,0,1-.19-3.53V25.55a34.33,34.33,0,0,1,.37-6.16,6.72,6.72,0,0,1,.34-1.22c.18-.48.44-.9,1-.9M183.88,0a19.08,19.08,0,0,0-6.6,1.07,5.18,5.18,0,0,0-2.73,2.51,1.19,1.19,0,0,0,.32,1.7,3.18,3.18,0,0,0,1.79.56,3.59,3.59,0,0,0,1.18-.21,1.07,1.07,0,0,0,.8-1,1,1,0,0,0-.7-.95,1.85,1.85,0,0,0-.48-.15l.18,0a3.31,3.31,0,0,0,.41-.13l.18,0,.16,0A27.77,27.77,0,0,1,182.91,3a35.07,35.07,0,0,1,6.19.58,41.09,41.09,0,0,1,18.53,8,18.57,18.57,0,0,1,6,7.18c1.74,4,.58,7.68-3.11,9.9A17.88,17.88,0,0,1,201,31.1a33.47,33.47,0,0,1-4.76-.37l-.08,0s0-.08,0-.17c-.11-1.93-.16-3.71-.16-5.44,0-.36,0-.72,0-1.08,0-.85,0-1.73,0-2.6a1,1,0,0,1,0-.33h.38c.58.05,1.16.07,1.73.09s1.33.05,2,.11a17.24,17.24,0,0,1,4.43.8c.73.27.83.48.84.54s0,.28-.5.83l-.1.1a3.11,3.11,0,0,0-.55.72,1,1,0,0,0-.07.86,1,1,0,0,0,.71.51,3.54,3.54,0,0,0,.85.11,3.65,3.65,0,0,0,3.15-1.94,3.22,3.22,0,0,0-.46-4.25,7.56,7.56,0,0,0-2.83-1.67,23.18,23.18,0,0,0-7.83-1.3c-.44,0-.89,0-1.33,0h-.14c-.3,0-.37-.06-.37-.06s-.07-.11-.07-.53a14.59,14.59,0,0,0-.75-5.1,1.68,1.68,0,0,0-1.52-1.32c-1,0-1.16.82-1.25,1.22,0,.06,0,.12-.05.18a23.52,23.52,0,0,0-.68,5.37v.34c0,.4,0,.4-.36.46a24.26,24.26,0,0,0-7.55,2.47c-1.68.93-2.52,1.81-2.71,2.84s.27,2.15,1.5,3.6a25.15,25.15,0,0,0,7.56,6c1.17.62,1.67,1.08,1.56,2.11a1.12,1.12,0,0,0,.11.55l0,.09a2.11,2.11,0,0,0,2.18,1.78H194c1.31-.05,1.88-.58,2.1-2a18.79,18.79,0,0,0,5.47.78,24.39,24.39,0,0,0,12.91-3.77,11,11,0,0,0,4.85-10.25A14.65,14.65,0,0,0,216,13.63a32.08,32.08,0,0,0-12.63-9.58,47.3,47.3,0,0,0-18.93-4Zm7.52,29.39a19.75,19.75,0,0,1-8-5.28c-.58-.68-.59-.94-.57-1s.17-.31,1-.61a27.92,27.92,0,0,1,6.47-1.11l1.08-.09h0c0,2.19,0,4.39,0,6.66v1.44ZM226.2,2.87h0a10.39,10.39,0,0,0-8.41,4.41,3.65,3.65,0,0,0-.81,3,14.2,14.2,0,0,0,.6,2,9.75,9.75,0,0,1,.66,2.43,1.26,1.26,0,0,0,1.28,1.17,1.28,1.28,0,0,0,1.08-.59c.27-.4.5-.46.71-.46a2.78,2.78,0,0,1,.71.14,3,3,0,0,0,.78.11h.1c3.57,0,8.33-3.19,9.62-6.43a3.21,3.21,0,0,0-.08-2.73,3.24,3.24,0,0,0-2.27-1.59,1.27,1.27,0,0,0-.28,0h-.06a3.32,3.32,0,0,0-2.72-1.36l-.91,0Zm-6,6a3.93,3.93,0,0,1,1.06-1.46,3.5,3.5,0,0,1,2.12-1.27,16.43,16.43,0,0,0-3.18,2.73Zm3.16,2.67c-.65,0-.78-.08-.8-.12a2.42,2.42,0,0,1,.46-.49l.31-.32a13.44,13.44,0,0,1,4.47-3.35,3,3,0,0,1,1.14-.34.77.77,0,0,1,.63.3c.34.41.23.9-.39,1.72a6.91,6.91,0,0,1-5.39,2.6h-.43Zm64.22,1.07h0a2.65,2.65,0,0,0-1.42.32,2.18,2.18,0,0,0-.9,2,1.62,1.62,0,0,0,1.7,1.81,3.12,3.12,0,0,0,.84-.13h.06c.23,0,.34,0,.34.13,0,.59-.55.88-1,1-.75.23-1.32.41-1.45.93a.87.87,0,0,0,.31.84,1.44,1.44,0,0,0,1,.34,3.29,3.29,0,0,0,3.26-3.45c0-3.7-2.36-3.8-2.63-3.8h-.12ZM250.89,14h0a1.24,1.24,0,0,0-.66.2c-.79.49-.53,1.36-.38,1.87a2.76,2.76,0,0,1,.08.27q.23.91.48,1.83a31.08,31.08,0,0,1,1.21,6.07,1.82,1.82,0,0,0,0,.32,2,2,0,0,1,0,.7,4,4,0,0,1-.22-.38,2.67,2.67,0,0,0-.32-.48,2.91,2.91,0,0,1-.28-.43l-.18-.29c-.35-.52-.68-1.06-1-1.6a30.77,30.77,0,0,0-2.36-3.43l-.21-.26a2.34,2.34,0,0,0-1.79-1.19l-.35,0c-1.06.22-1.41,1.2-1.67,1.92l-.07.2a30.5,30.5,0,0,0-1.47,7.31,6.82,6.82,0,0,0,.36,3.84c.29.62.77,1.65,1.87,1.65l.28,0c1.28-.2,1.37-1.43,1.42-2.17s0-1.35,0-1.88c0-.18,0-.35,0-.5,0-.46.07-.94.09-1.39a16.88,16.88,0,0,1,.3-2.72v0h0c.23.37.44.76.66,1.14s.47.88.7,1.31A17.24,17.24,0,0,0,250.07,30a2.8,2.8,0,0,0,2,1,2.71,2.71,0,0,0,2.19-1.37,5.08,5.08,0,0,0,.62-1.27,14.49,14.49,0,0,0-2.5-13.24c-.29-.39-.77-1.05-1.49-1.05Zm15.87,1.84h0a39.69,39.69,0,0,0-9.38,1.36,1.13,1.13,0,0,0-.76.51.92.92,0,0,0,0,.77c.16.47.54,1.57,1.69,1.63a1.5,1.5,0,0,1,.35.06,1.92,1.92,0,0,1-.15.44A8,8,0,0,0,258,22a.35.35,0,0,1-.26.29,1.82,1.82,0,0,0-1.07,2.51,1.51,1.51,0,0,1-.08,1.26c-.18.44-.32.89-.46,1.32l0,.09a4.34,4.34,0,0,0,.73,3.84,4.19,4.19,0,0,0,3.33,1.8l.35,0a11.71,11.71,0,0,0,6.24-3,1.75,1.75,0,0,0,.6-2.27,1.68,1.68,0,0,0-1.59-1,2.75,2.75,0,0,0-.66.08l-2.72.59-1.45.32a2.08,2.08,0,0,1-.3,0h-.1a1.69,1.69,0,0,1,0-.4,5.73,5.73,0,0,1,.24-.85c.07-.23.15-.46.2-.69s.11-.31.41-.32c1.26,0,2.61-.14,4.11-.29s1.71-1.19,1.66-2.08c0-.67-.38-1.48-1.73-1.48h-.12l-2.58.11-.44,0a10.67,10.67,0,0,0,.29-1c.08-.36.15-.36.35-.36h.11c.41,0,.83.05,1.24.05s.81,0,1.21-.05.54,0,.81,0a5.84,5.84,0,0,0,2.31-.35c.37-.16,1.5-.65,1.2-1.85a4,4,0,0,0-3.11-2.38Zm8,0h0a1.29,1.29,0,0,0-.76.3,6.93,6.93,0,0,0-.85.71,16,16,0,0,0-3.43,5c-.88,2-1.67,4.68.09,7.32l0,.08,0,.09a23.5,23.5,0,0,0-2,5.39c-.41,2-1,5.15-1.14,6.1a4.5,4.5,0,0,0,2,4.36,2,2,0,0,0,1.16.56c.83,0,1-1,1.09-1.38.39-2.11.73-4.19,1-6.12l.63-2.46.29-.84c.22-.65.43-1.27.61-1.89s.32-.77,1-.77h.37c4.1,0,8.5-3.66,9.6-8a7.34,7.34,0,0,0-.49-5.15c-.56-1.11-1.3-2.25-2.6-2.25a4.36,4.36,0,0,0-2.29.87c-.37.24-.76.52-1.15.83a28,28,0,0,0-5.32,5.91,4.07,4.07,0,0,1,.27-.95,23.89,23.89,0,0,1,1.35-2.79c.27-.49.54-1,.78-1.47a7.32,7.32,0,0,0,.79-2.07,1.14,1.14,0,0,0-.4-1.25,1,1,0,0,0-.54-.17Zm1.22,12a25.78,25.78,0,0,1,4.16-5.9l.1-.1a2.09,2.09,0,0,1,.23-.21,4.71,4.71,0,0,0,.41-.35c.18-.16.39-.35.52-.35l.11,0c.21.1.25.32.24.92v.28c0,3.12-2.95,5.44-5.77,5.68ZM300.27,16a21,21,0,0,0-8.29,1.8,4.44,4.44,0,0,0-2.21,1.92,2.86,2.86,0,0,0-.25,2.55,2.8,2.8,0,0,0,2,1.58,12.59,12.59,0,0,0,3.31.34h1.76a12,12,0,0,1,3.59.42l.23.07c1,.31,1.62.54,1.72,1.39.07.62-.54,1.15-1.84,1.57a15,15,0,0,1-4.86.69l-1.17,0a1.83,1.83,0,0,1-1-.35c-.47-.33-.38-.58-.35-.68s.1-.3.63-.32h.14a5.78,5.78,0,0,1,1.83.42l.49.17a6.83,6.83,0,0,0,2.13.35,5.92,5.92,0,0,0,1.95-.33c.43-.15,1.34-.47,1.31-1.43S300.47,25,300,24.84a17.88,17.88,0,0,0-4.51-.58,19.49,19.49,0,0,0-2,.11,3.18,3.18,0,0,0-2.71,1.79,3.39,3.39,0,0,0,.6,3.37,5.78,5.78,0,0,0,1.8,1.56A10.11,10.11,0,0,0,298,32.33a11.71,11.71,0,0,0,3.86-.69,5.43,5.43,0,0,0,3.2-2.72,4.89,4.89,0,0,0,.12-4.46A5.67,5.67,0,0,0,301,21.55a16.09,16.09,0,0,0-2.65-.2l-1.06,0a14.85,14.85,0,0,1-3.31-.41l-.12,0,.1,0a3.52,3.52,0,0,1,.57-.17,20.32,20.32,0,0,1,3.35-.41l1.28-.1.92-.08a15.72,15.72,0,0,0,4.41-.77c.42-.16,1.51-.57,1.39-1.71-.08-.88-.9-1.05-1.34-1.14l-.16,0a18.36,18.36,0,0,0-4.1-.47Zm-64,0a21,21,0,0,0-8.28,1.8,4.4,4.4,0,0,0-2.21,1.92,2.86,2.86,0,0,0-.25,2.55,2.8,2.8,0,0,0,2,1.58,12.56,12.56,0,0,0,3.3.34h1.76a12,12,0,0,1,3.6.42l.23.07c1,.31,1.62.54,1.72,1.39.07.62-.55,1.15-1.84,1.57a15.1,15.1,0,0,1-4.87.69l-1.16,0a1.89,1.89,0,0,1-1-.35c-.46-.33-.38-.58-.34-.68s.1-.3.63-.32h.13a5.84,5.84,0,0,1,1.84.42l.49.17a6.78,6.78,0,0,0,2.13.35,6,6,0,0,0,1.95-.33c.43-.15,1.34-.47,1.31-1.43S236.48,25,236,24.84a17.88,17.88,0,0,0-4.51-.58,19.68,19.68,0,0,0-2,.11,3.16,3.16,0,0,0-2.7,1.79,3.39,3.39,0,0,0,.6,3.37,5.67,5.67,0,0,0,1.8,1.56A10.11,10.11,0,0,0,234,32.33a11.75,11.75,0,0,0,3.86-.69,5.43,5.43,0,0,0,3.2-2.72,4.89,4.89,0,0,0,.12-4.46A5.71,5.71,0,0,0,237,21.55a16.09,16.09,0,0,0-2.65-.2l-1.06,0a14.85,14.85,0,0,1-3.31-.41l-.12,0,.1,0a3.24,3.24,0,0,1,.57-.17,20.19,20.19,0,0,1,3.35-.41l1.28-.1.92-.08a15.72,15.72,0,0,0,4.41-.77c.41-.16,1.51-.57,1.39-1.71-.09-.88-.9-1.05-1.34-1.14l-.17,0a18.29,18.29,0,0,0-4.1-.47Zm-13.64.81A1.62,1.62,0,0,0,221.12,18a7,7,0,0,0-.37,1.3,33.14,33.14,0,0,0-.37,5.86v2.36a12.82,12.82,0,0,0,.2,2.95,2.32,2.32,0,0,0,1.79,2.09,2.56,2.56,0,0,0,.47,0,1.82,1.82,0,0,0,1.38-.56,2.59,2.59,0,0,0,.56-2c-.09-1.33-.06-2.7,0-4a41.77,41.77,0,0,0,0-4.33c0-.22,0-.44,0-.66a9.91,9.91,0,0,0-.51-3.06,1.64,1.64,0,0,0-1.46-1.22Z"/><path class="cls-9" d="M413.78,194.66c3.26-4.74,2.47-5.29,5.73-10s3.48-4.59,6.74-9.34a9.31,9.31,0,0,1,10.13-3.73,9.08,9.08,0,0,1,6.54,8.38c.39,5.75.55,5.74.94,11.48s.07,5.77.46,11.51a9.24,9.24,0,0,0,6.8,8c5.53,1.63,5.42,2,10.94,3.61s5.65,1.22,11.17,2.85c4.14,1.23,6,4.92,6.19,8.5a8.68,8.68,0,0,1-5.43,8.86c-5.34,2.15-5.43,1.93-10.78,4.08s-5.1,2.74-10.45,4.88c-3.53,1.42-6.21,4.54-6.11,8.35.16,5.76.19,5.76.35,11.52s.7,5.74.86,11.49a9.22,9.22,0,0,1-6.21,8.76,8.87,8.87,0,0,1-10.14-2.72c-3.69-4.42-3.5-4.58-7.19-9s-3.73-4.39-7.42-8.8c-2.45-2.93-6.61-3.62-10.2-2.35-5.43,1.93-5.55,1.59-11,3.52s-5.48,1.78-10.91,3.71c-4.07,1.45-8,.33-10.23-2.47s-2.44-6.84-.15-10.5c3.06-4.88,3.08-4.87,6.14-9.75l6.12-9.75c2-3.23,1.15-7.28-1.17-10.3-3.51-4.56-3.2-4.8-6.71-9.36s-3.43-4.64-6.94-9.2a8.74,8.74,0,0,1-.22-10.42,8.83,8.83,0,0,1,9.67-4c5.59,1.41,5.49,1.78,11.08,3.18s5.67,1.06,11.25,2.47C407.36,198.93,411.63,197.81,413.78,194.66Z"/><path class="cls-7" d="M413.78,194.66c3.26-4.74,2.47-5.29,5.73-10s3.48-4.59,6.74-9.34a9.31,9.31,0,0,1,10.13-3.73,9.08,9.08,0,0,1,6.54,8.38c.39,5.75.55,5.74.94,11.48s.07,5.77.46,11.51a9.24,9.24,0,0,0,6.8,8c5.53,1.63,5.42,2,10.94,3.61s5.65,1.22,11.17,2.85c4.14,1.23,6,4.92,6.19,8.5a8.68,8.68,0,0,1-5.43,8.86c-5.34,2.15-5.43,1.93-10.78,4.08s-5.1,2.74-10.45,4.88c-3.53,1.42-6.21,4.54-6.11,8.35.16,5.76.19,5.76.35,11.52s.7,5.74.86,11.49a9.22,9.22,0,0,1-6.21,8.76,8.87,8.87,0,0,1-10.14-2.72c-3.69-4.42-3.5-4.58-7.19-9s-3.73-4.39-7.42-8.8c-2.45-2.93-6.61-3.62-10.2-2.35-5.43,1.93-5.55,1.59-11,3.52s-5.48,1.78-10.91,3.71c-4.07,1.45-8,.33-10.23-2.47s-2.44-6.84-.15-10.5c3.06-4.88,3.08-4.87,6.14-9.75l6.12-9.75c2-3.23,1.15-7.28-1.17-10.3-3.51-4.56-3.2-4.8-6.71-9.36s-3.43-4.64-6.94-9.2a8.74,8.74,0,0,1-.22-10.42,8.83,8.83,0,0,1,9.67-4c5.59,1.41,5.49,1.78,11.08,3.18s5.67,1.06,11.25,2.47C407.36,198.93,411.63,197.81,413.78,194.66Z"/><path class="cls-10" d="M436.87,281.93a6.75,6.75,0,0,1-4-2c-3.7-4.42-3.89-4.26-7.59-8.67s-3.38-4.68-7.08-9.1a11.3,11.3,0,0,0-6.08-3.71,11,11,0,0,0-6.17.48c-5.43,1.93-5.56,1.56-11,3.49s-5.24,2.45-10.67,4.37a7.64,7.64,0,0,1-4.12.41c-2.21-.5-3.6-2.72-4.49-4.88s-1.53-4.47-.26-6.48c3.06-4.88,3.07-4.87,6.13-9.75s3.82-4.4,6.88-9.28a12,12,0,0,0-.59-13.21c-3.51-4.57-4.29-4-7.8-8.53s-3.46-4.61-7-9.18A7.63,7.63,0,0,1,380.73,194c5.64,1.38,5.61,1.48,11.24,2.9s5.56,1.68,11.19,3.09c.12,0,.19-.27.31-.24a10.66,10.66,0,0,0,11.45-4.32c3.25-4.75,3.08-4.86,6.34-9.61s3.38-4.67,6.64-9.42c2-2.94,5.24-3,7.51-2.44s5.47,2.19,5.74,6.08c.39,5.75.14,5.76.53,11.51s.93,5.71,1.32,11.45a10.53,10.53,0,0,0,7.59,9.68c5.53,1.63,5.31,2.35,10.84,4s5.79.71,11.31,2.34a7.55,7.55,0,0,1,5.16,6.93,7.31,7.31,0,0,1-4.57,7.14c-5.34,2.15-5.46,1.87-10.8,4s-5.28,2.3-10.63,4.45a11.31,11.31,0,0,0-7.24,10.55c.16,5.75.54,5.74.7,11.5s-.22,5.77-.06,11.52c.06,2.26-.48,4.41-2.16,5.79A7.24,7.24,0,0,1,436.87,281.93Z"/><path class="cls-11" d="M437.2,280.46c-1-.23-1.71-1.19-2.45-2.08-3.7-4.42-3.68-4.44-7.37-8.86s-3.57-4.51-7.27-8.93c-1.82-2.19-4.8-3.17-7.57-3.81a12.7,12.7,0,0,0-7.2.31c-5.43,1.92-5.58,1.49-11,3.42s-5.45,1.87-10.88,3.8a4.61,4.61,0,0,1-2.67.37,5.06,5.06,0,0,1-3.63-3,4.58,4.58,0,0,1,.63-4.43c3.06-4.88,3-4.93,6.05-9.8s3.14-4.84,6.2-9.71a13.48,13.48,0,0,0-.9-15.15c-3.51-4.57-3.44-4.62-7-9.19s-3.28-4.74-6.79-9.3c-2-2.64-1.41-5.12-.95-5.83a5.54,5.54,0,0,1,5.75-1.93c5.62,1.39,5.69,1.11,11.31,2.52s5.47,2,11.09,3.41c.13,0,.28-.55.41-.52a12.61,12.61,0,0,0,13.49-5.28c3.25-4.75,3.87-4.33,7.12-9.08s2.49-5.28,5.74-10c1.83-2.65,4.85-1.74,5.64-1.56a4.76,4.76,0,0,1,4.17,4.35c.39,5.74.22,5.75.61,11.5s.22,5.76.61,11.5A13.49,13.49,0,0,0,449.91,215c5.52,1.63,5.58,1.45,11.1,3.08s5.42,2,10.94,3.62a5,5,0,0,1,3.84,4.34,5.29,5.29,0,0,1-3.16,5.31c-5.34,2.14-5.49,1.77-10.83,3.92l-10.69,4.31A13.12,13.12,0,0,0,443,252.13c.16,5.76-.23,5.77-.08,11.53s.72,5.74.87,11.5a5.44,5.44,0,0,1-1.8,4.34c-1.27,1-3.13.67-4.68.31C437.22,279.8,437.21,280.47,437.2,280.46Z"/><path class="cls-12" d="M429.68,184.79c.35-1.36,1.37-1.8,2.74-1.45s2.38,1.29,2,2.66a2.45,2.45,0,0,1-3.12,1.63A2.18,2.18,0,0,1,429.68,184.79Z"/><path class="cls-12" d="M427.45,193.52a2.28,2.28,0,0,1,2.84-1.82,2.56,2.56,0,0,1,2,3,2.79,2.79,0,0,1-3.23,2A2.51,2.51,0,0,1,427.45,193.52Z"/><path class="cls-12" d="M425.06,202.19c.34-1.36,1.56-1.73,2.93-1.39s2.72,1.37,2.38,2.74a3,3,0,0,1-3.52,1.77A2.53,2.53,0,0,1,425.06,202.19Z"/><path class="cls-12" d="M379.61,203a2.23,2.23,0,0,1-.91-3.2,2.82,2.82,0,0,1,3.65-1.14,3.23,3.23,0,0,1,.93,4C382.52,203.82,380.8,203.71,379.61,203Z"/><path class="cls-12" d="M386.9,208.27c-1.19-.75-1.14-2.41-.39-3.6s2.29-2,3.48-1.3.93,2.41.18,3.6S388.1,209,386.9,208.27Z"/><path class="cls-12" d="M394.9,212.46a1.83,1.83,0,0,1-.6-2.89c.75-1.19,2-2,3.19-1.21a2.52,2.52,0,0,1,.5,3.54A2,2,0,0,1,394.9,212.46Z"/><path class="cls-12" d="M386.35,258.41a2.45,2.45,0,0,1-3.47-.59,2.52,2.52,0,0,1,0-3.58,2.55,2.55,0,0,1,3.56.62A2.49,2.49,0,0,1,386.35,258.41Z"/><path class="cls-12" d="M392.91,252.21c-1.09.91-2.72,1.36-3.63.28s-.2-2.67.88-3.57,2.52-1.1,3.42,0S394,251.31,392.91,252.21Z"/><path class="cls-12" d="M400.09,246.77a2.71,2.71,0,0,1-3.74-.17,2.68,2.68,0,0,1,.55-3.67,2.8,2.8,0,0,1,3.81,0A2.85,2.85,0,0,1,400.09,246.77Z"/><path class="cls-12" d="M439,272.07c.53,1.31-.05,2.28-1.36,2.8s-2.91.42-3.43-.89a2.92,2.92,0,0,1,1.67-3.52A2.44,2.44,0,0,1,439,272.07Z"/><path class="cls-12" d="M436,263.55a2.73,2.73,0,1,1-3.63-1.73A3.08,3.08,0,0,1,436,263.55Z"/><path class="cls-12" d="M432.14,255.41c.52,1.31.26,2.62-1.05,3.14a2.6,2.6,0,0,1-3.38-1.37,2.7,2.7,0,0,1,1.46-3.43C430.48,253.23,431.61,254.1,432.14,255.41Z"/><path class="cls-12" d="M469.78,224.82a2.19,2.19,0,0,1,2.36,2.31,2.13,2.13,0,0,1-2,2.51,2.56,2.56,0,0,1-2.88-2.19A2.63,2.63,0,0,1,469.78,224.82Z"/><path class="cls-12" d="M460.77,225.06c1.41-.09,2.21,1.26,2.3,2.67s-.55,2.47-1.95,2.56a2.45,2.45,0,0,1-2.71-2.25A2.8,2.8,0,0,1,460.77,225.06Z"/><path class="cls-12" d="M451.8,225.76a2.9,2.9,0,0,1,3,2.52,2.68,2.68,0,0,1-2.62,2.62,2.31,2.31,0,0,1-2.53-2.28A2.54,2.54,0,0,1,451.8,225.76Z"/><path class="cls-13" d="M425.3,215.81c.14-.34-.76-3.08.83-1.49s6.38,2.6,11.24,4.58,10.49,4.86,7.33,12.61-10.79,4.59-10.79,4.59c.42,13.34,6.33,14.62,6.33,14.62-3.49,1.47-8.46.25-9.34-1.85s-4.34-16.48-4-17.34,1-.81,3.78.3a6.17,6.17,0,0,0,7.9-3.16c1.3-3.19.3-6.53-2.38-7.62s-5.14-1.47-5.49-.6-7.31,17.22-8.05,19-1.2,4.24-.78,5.24,0,1-.85.65a35.43,35.43,0,0,0-3.37-1.88c-1.82-.75-3.83-1.05-4.74-1.42s-.52-1.63.5-1.22,1.88-.45,2.37-1.67l9.25-22.69S425.16,216.16,425.3,215.81Zm-6.61-8.3c-1.88-.76-1.73-1.71-2.65,2s-3.9,9.58-7.71,18.95-10.44,4.6-10.86,3.61-.69-.34-1.52,1.68-2.2.91,4.13,3.49,13.77-3,15.23-6.64,10.21-21,8.79-21.58-1.74.06-3.56-.69A11.11,11.11,0,0,0,418.69,207.51Z"/><circle class="cls-14" cx="39.38" cy="50.88" r="4.33"/><circle class="cls-15" cx="40.88" cy="49.13" r="1.29"/><circle class="cls-14" cx="87.13" cy="21.96" r="4.33"/><circle class="cls-15" cx="88.63" cy="20.21" r="1.29"/><circle class="cls-14" cx="95.8" cy="68.21" r="4.33"/><circle class="cls-15" cx="97.3" cy="66.46" r="1.29"/><circle class="cls-14" cx="112.13" cy="103" r="4.33"/><circle class="cls-15" cx="113.63" cy="101.25" r="1.29"/><circle class="cls-14" cx="258.42" cy="108.3" r="3.63"/><circle class="cls-15" cx="259.68" cy="106.83" r="1.08"/><circle class="cls-14" cx="268.3" cy="139.17" r="4.71"/><circle class="cls-15" cx="269.93" cy="137.27" r="1.4"/><circle class="cls-14" cx="251.42" cy="154.67" r="3.31"/><circle class="cls-15" cx="252.57" cy="153.34" r="0.99"/><circle class="cls-14" cx="304.48" cy="47.23" r="5.35"/><circle class="cls-15" cx="306.34" cy="45.07" r="1.59"/><circle class="cls-14" cx="313.27" cy="28.1" r="2.39"/><circle class="cls-15" cx="314.1" cy="27.14" r="0.71"/><circle class="cls-14" cx="409.91" cy="132.7" r="4.57"/><circle class="cls-15" cx="411.49" cy="130.85" r="1.36"/><circle class="cls-14" cx="421.88" cy="166.2" r="2.95"/><circle class="cls-15" cx="422.9" cy="165.01" r="0.88"/><circle class="cls-14" cx="401.44" cy="173.78" r="4.94"/><circle class="cls-15" cx="403.15" cy="171.78" r="1.47"/><circle class="cls-14" cx="80.38" cy="84.46" r="6.75"/><circle class="cls-15" cx="82.72" cy="81.74" r="2.01"/><circle class="cls-14" cx="60.38" cy="132.46" r="4.74"/><circle class="cls-15" cx="62.02" cy="130.55" r="1.41"/><line class="cls-6" x1="256.75" y1="187.93" x2="237.96" y2="205.35"/><polygon class="cls-5" points="257.43 188.66 237.96 205.35 256.06 187.19 257.43 188.66"/><line class="cls-6" x1="248.34" y1="187.93" x2="252.23" y2="192.12"/><polygon class="cls-5" points="248.34 187.93 252.96 191.44 251.5 192.8 248.34 187.93"/><line class="cls-6" x1="243" y1="190.52" x2="248.26" y2="196.08"/><polygon class="cls-5" points="243 190.52 248.99 195.4 247.53 196.77 243 190.52"/><line class="cls-6" x1="240.29" y1="195.73" x2="244.17" y2="199.92"/><polygon class="cls-5" points="240.28 195.73 244.91 199.24 243.44 200.6 240.28 195.73"/><circle class="cls-14" cx="450.43" cy="49.94" r="10.08"/><circle class="cls-15" cx="446.94" cy="45.87" r="3.01"/><circle class="cls-14" cx="392.1" cy="10.36" r="5.53"/><circle class="cls-15" cx="390.18" cy="8.13" r="1.65"/><circle class="cls-14" cx="399.24" cy="80.08" r="7.14"/><circle class="cls-15" cx="396.76" cy="77.2" r="2.13"/><circle class="cls-14" cx="426.26" cy="151.48" r="6.05"/><circle class="cls-15" cx="424.16" cy="149.04" r="1.8"/></g></g></svg>